<svg width="23" height="28" viewBox="0 0 23 28" fill="none" xmlns="http://www.w3.org/2000/svg">
<g id="Apple_logo_black 1" clip-path="url(#clip0_477_240)">
<path id="Vector" d="M22.2682 9.5452C22.1043 9.6712 19.2109 11.2868 19.2109 14.8792C19.2109 19.0344 22.8926 20.5044 23.0028 20.5408C22.9859 20.6304 22.4179 22.554 21.0617 24.514C19.8523 26.2388 18.5893 27.9608 16.6679 27.9608C14.7466 27.9608 14.2521 26.8548 12.034 26.8548C9.87248 26.8548 9.10393 27.9972 7.34644 27.9972C5.58894 27.9972 4.36265 26.4012 2.9527 24.4412C1.31953 22.1396 0 18.564 0 15.1704C0 9.7272 3.5715 6.8404 7.08649 6.8404C8.95418 6.8404 10.5111 8.0556 11.6837 8.0556C12.7998 8.0556 14.5403 6.7676 16.6651 6.7676C17.4704 6.7676 20.3638 6.8404 22.2682 9.5452ZM15.6564 4.4632C16.5351 3.43 17.1568 1.9964 17.1568 0.5628C17.1568 0.364 17.1398 0.1624 17.1031 0C15.6733 0.0532 13.9724 0.9436 12.9467 2.1224C12.1414 3.0296 11.3898 4.4632 11.3898 5.9164C11.3898 6.1348 11.4265 6.3532 11.4435 6.4232C11.5339 6.44 11.6808 6.4596 11.8278 6.4596C13.1106 6.4596 14.724 5.6084 15.6564 4.4632Z" fill="white"/>
</g>
<defs>
<clipPath id="clip0_477_240">
<rect width="23" height="28" fill="white"/>
</clipPath>
</defs>
</svg>
