<svg width="47" height="47" viewBox="0 0 47 47" fill="none" xmlns="http://www.w3.org/2000/svg">
<g id="Mask group">
<mask id="mask0_172_373" style="mask-type:alpha" maskUnits="userSpaceOnUse" x="0" y="0" width="47" height="47">
<circle id="Ellipse 2" cx="23.5" cy="23.5" r="23.5" fill="white"/>
</mask>
<g mask="url(#mask0_172_373)">
<g id="Group">
<g id="Group_2">
<path id="Vector" d="M30.8471 33.6414C30.772 33.7677 29.7205 35.3603 27.5175 36.4219C26.6913 36.8264 25.6899 37.1297 24.5383 37.2561H23.4869C21.8846 37.0792 20.6079 36.5483 19.6565 35.9417C18.0042 34.9305 17.2282 33.6919 17.1781 33.6161C17.3033 33.5402 17.4284 33.4644 17.5286 33.3886C18.4048 32.7819 18.3547 32.4533 18.3547 32.4533V28.3077C18.4298 28.4341 18.53 28.5605 18.6051 28.6616C19.7817 30.2288 21.6593 31.518 23.9876 31.518C26.3158 31.518 28.1934 30.2288 29.37 28.6616C29.4702 28.5352 29.5453 28.4341 29.6204 28.3077V32.4533C29.6204 32.4533 29.5703 32.7566 30.4465 33.3886C30.5717 33.4897 30.6969 33.5655 30.8471 33.6414C30.8221 33.6414 30.8221 33.6414 30.8471 33.6414Z" fill="#F7C9B5"/>
<path id="Vector_2" d="M31.1224 22.8729C30.9972 24.0104 30.822 25.1479 30.6467 25.9821C30.4965 26.7405 30.1461 27.5494 29.6203 28.3077C29.5452 28.4341 29.4451 28.5605 29.37 28.6616C28.1933 30.2288 26.3157 31.518 23.9875 31.518C21.6593 31.518 19.7817 30.2288 18.605 28.6616C18.5049 28.5352 18.4298 28.4088 18.3547 28.3077C17.854 27.5494 17.5035 26.7152 17.3282 25.9821C17.153 25.1227 16.9778 23.9852 16.8526 22.8729C13.7733 22.7213 13.2726 17.6656 14.5494 17.059C14.8999 16.882 15.2003 16.8315 15.4256 16.8567C15.2754 15.0873 14.6495 4.698 24.0125 4.698C33.3755 4.698 32.7497 15.0873 32.5744 16.882C32.7997 16.8567 33.1002 16.9073 33.4506 17.0842C34.7024 17.6656 34.2017 22.7213 31.1224 22.8729Z" fill="#F7C9B5"/>
<path id="Vector_3" d="M19.3811 23.606C20.1415 23.606 20.758 22.9835 20.758 22.2157C20.758 21.4478 20.1415 20.8254 19.3811 20.8254C18.6206 20.8254 18.0042 21.4478 18.0042 22.2157C18.0042 22.9835 18.6206 23.606 19.3811 23.606Z" fill="#E0A388"/>
<path id="Vector_4" d="M28.619 23.606C29.3794 23.606 29.9959 22.9835 29.9959 22.2157C29.9959 21.4478 29.3794 20.8254 28.619 20.8254C27.8585 20.8254 27.2421 21.4478 27.2421 22.2157C27.2421 22.9835 27.8585 23.606 28.619 23.606Z" fill="#E0A388"/>
<path id="Vector_5" d="M25.5147 23.6565C25.2643 23.7829 24.8387 23.9346 24.0126 23.9346C23.1864 23.9346 22.7358 23.8082 22.5105 23.6565C22.5105 23.6565 22.5105 23.5301 22.5355 23.3026C22.6357 22.0387 23.0112 17.792 24.0376 17.792C25.039 17.792 25.4396 22.0387 25.5147 23.3026C25.5147 23.5301 25.5147 23.6565 25.5147 23.6565Z" fill="#E0A388"/>
<g id="Group_3">
<path id="Vector_6" d="M21.9596 17.4634C21.509 16.8567 20.808 16.4775 20.057 16.4775C19.3059 16.4775 18.605 16.9073 18.1794 17.5139C18.0792 17.6403 18.3046 17.7667 18.4047 17.6403C18.7802 17.0842 19.4061 16.7303 20.057 16.7303C20.7079 16.7303 21.3588 17.0589 21.7594 17.5898C21.8345 17.7162 22.0598 17.5898 21.9596 17.4634Z" fill="#2E3131"/>
<path id="Vector_7" d="M20.8331 14.6828C19.9819 14.6828 19.1308 14.8597 18.3296 15.1884C18.1794 15.2642 18.0543 15.3148 17.9541 15.4664C17.879 15.5928 17.854 15.795 17.879 15.9467C17.9291 16.0984 18.0292 16.25 18.1544 16.3259C18.3046 16.4017 18.4799 16.4523 18.6301 16.4017C18.9805 16.25 19.3561 16.1237 19.7566 16.0478C19.8568 16.0225 19.9319 16.0225 20.032 15.9973C20.057 15.9973 20.0821 15.9973 20.1071 15.972C20.1822 15.972 20.1572 15.972 20.057 15.972C20.0821 15.9467 20.1572 15.972 20.1822 15.9467C20.3825 15.9214 20.5828 15.9214 20.7831 15.9214C21.1085 15.9214 21.434 15.6434 21.4089 15.2895C21.434 14.9861 21.1836 14.6828 20.8331 14.6828Z" fill="#2E3131"/>
<path id="Vector_8" d="M20.0571 18.7779C20.6655 18.7779 21.1586 18.2799 21.1586 17.6656C21.1586 17.0514 20.6655 16.5534 20.0571 16.5534C19.4487 16.5534 18.9556 17.0514 18.9556 17.6656C18.9556 18.2799 19.4487 18.7779 20.0571 18.7779Z" fill="#2E3131"/>
</g>
<g id="Group_4">
<path id="Vector_9" d="M26.0404 17.4634C26.491 16.8567 27.192 16.4775 27.943 16.4775C28.694 16.4775 29.395 16.9073 29.8206 17.5139C29.9208 17.6403 29.6954 17.7667 29.5953 17.6403C29.2198 17.0842 28.5939 16.7303 27.943 16.7303C27.2921 16.7303 26.6412 17.0589 26.2406 17.5898C26.1655 17.7162 25.9402 17.5898 26.0404 17.4634Z" fill="#2E3131"/>
<path id="Vector_10" d="M27.1669 14.6828C28.0181 14.6828 28.8692 14.8597 29.6704 15.1884C29.8206 15.2642 29.9457 15.3148 30.0459 15.4664C30.121 15.5928 30.146 15.795 30.121 15.9467C30.0709 16.0984 29.9708 16.25 29.8456 16.3259C29.6954 16.4017 29.5201 16.4523 29.3699 16.4017C29.0195 16.25 28.6439 16.1237 28.2434 16.0478C28.1432 16.0225 28.0681 16.0225 27.968 15.9973C27.943 15.9973 27.9179 15.9973 27.8929 15.972C27.8178 15.972 27.8428 15.972 27.943 15.972C27.9179 15.9467 27.8428 15.972 27.8178 15.9467C27.6175 15.9214 27.4172 15.9214 27.2169 15.9214C26.8915 15.9214 26.566 15.6434 26.5911 15.2895C26.566 14.9861 26.8164 14.6828 27.1669 14.6828Z" fill="#2E3131"/>
<path id="Vector_11" d="M27.943 18.7779C28.5513 18.7779 29.0445 18.2799 29.0445 17.6656C29.0445 17.0514 28.5513 16.5534 27.943 16.5534C27.3346 16.5534 26.8414 17.0514 26.8414 17.6656C26.8414 18.2799 27.3346 18.7779 27.943 18.7779Z" fill="#2E3131"/>
</g>
<path id="Vector_12" d="M32.5745 16.882C32.5745 16.882 32.0487 24.2884 31.3227 26.7151C30.5967 29.1418 28.1683 32.0235 24.0126 32.0235C19.8568 32.0235 17.4284 29.1418 16.7024 26.7151C15.9764 24.2884 15.4507 16.882 15.4507 16.882L15.6259 15.3906L18.58 24.8698C18.58 24.8698 20.683 23.9345 23.9875 23.9345C27.3172 23.9345 29.3951 24.8698 29.3951 24.8698L32.2991 15.5675L32.5745 16.882Z" fill="#2E3131"/>
<path id="Vector_13" d="M32.5744 16.882C32.5744 16.882 31.7232 11.3967 29.6954 9.80414C29.6954 9.80414 21.5341 13.1156 18.9555 9.29858C18.9555 9.29858 15.9263 10.5878 15.4256 16.882C15.4256 16.882 13.2476 12.4078 16.3769 8.05995C16.3769 8.05995 13.573 3.91435 17.4784 3.35823C21.3839 2.80212 20.8832 3.71213 25.6648 3.08017C30.4464 2.44822 30.847 5.75965 30.847 5.75965C30.847 5.75965 34.8526 6.21465 32.5744 16.882Z" fill="#2E3131"/>
<path id="Vector_14" d="M21.2587 24.516C21.6593 25.3502 22.4604 25.9568 23.3867 26.1085C23.5369 26.1338 23.4868 26.3866 23.3116 26.3613C22.3352 26.1843 21.459 25.5271 21.0334 24.6424C20.9583 24.516 21.1836 24.3896 21.2587 24.516Z" fill="white"/>
<path id="Vector_15" d="M28.0181 3.5352C27.8929 3.43408 27.7177 3.61103 27.8429 3.71214C29.1447 4.97605 29.7956 6.82134 29.5953 8.61609C29.5703 8.76775 29.8206 8.76775 29.8456 8.61609C30.0459 6.77079 29.345 4.82438 28.0181 3.5352Z" fill="#4F5656"/>
<path id="Vector_16" d="M26.0403 4.39465C25.6398 4.09131 25.1891 3.83853 24.7135 3.61103C24.5633 3.53519 24.4381 3.7627 24.5883 3.83853C26.1905 4.54632 27.4673 5.88605 28.1683 7.50385C28.3686 7.95885 28.5188 8.43914 28.5939 8.9447C28.6189 9.09637 28.8693 9.04581 28.8442 8.86886C28.5188 7.0994 27.4923 5.4816 26.0403 4.39465Z" fill="#4F5656"/>
<path id="Vector_17" d="M27.6677 9.17219C26.9416 7.14995 25.4646 5.43104 23.587 4.41992C23.0613 4.14186 22.5105 3.91436 21.9347 3.76269C21.7845 3.71213 21.7094 3.96491 21.8596 4.01547C23.8373 4.57159 25.5647 5.91133 26.6663 7.68079C26.9667 8.18635 27.2421 8.71719 27.4173 9.24803C27.4924 9.3997 27.7177 9.32386 27.6677 9.17219Z" fill="#4F5656"/>
<path id="Vector_18" d="M25.6398 9.42499C24.5633 7.14996 22.4854 5.40578 20.032 4.7991C19.306 4.62216 18.555 4.52105 17.8039 4.54632C17.6537 4.54632 17.6537 4.7991 17.8039 4.7991C20.3074 4.74855 22.7608 5.88606 24.338 7.83247C24.7636 8.36331 25.1141 8.94471 25.4145 9.55138C25.4896 9.70305 25.7149 9.57666 25.6398 9.42499Z" fill="#4F5656"/>
</g>
</g>
<g id="Group_5">
<path id="Vector_19" d="M27.5174 36.4219L23.4618 40.5675L19.6565 35.9416C20.6329 36.5483 21.9096 37.0791 23.4868 37.2561H24.5383C25.6899 37.1297 26.6913 36.8263 27.5174 36.4219Z" fill="#F6F0E3"/>
<path id="Vector_20" d="M51 52.979L23.9875 52.5493L-3 52.979C-3 52.979 -0.27121 44.1823 1.13074 41.7556C2.53268 39.3541 6.98887 37.7111 12.7719 35.613C12.9722 35.5372 13.1474 35.4866 13.3227 35.4108C14.3741 31.7707 17.5285 33.3885 17.5285 33.3885L19.1307 35.3349L19.6314 35.9416L23.4367 40.5675L27.4924 36.4219L28.6439 35.2338L30.4465 33.3885C30.4465 33.3885 32.6745 31.8213 34.0765 35.1833C34.427 35.3097 34.8025 35.4613 35.2281 35.613C41.0111 37.7111 45.4923 39.3289 46.8693 41.7556C48.2712 44.1823 51 52.979 51 52.979Z" fill="#54A4A8"/>
<path id="Vector_21" d="M21.4089 43.8031C19.3561 41.9325 17.3283 40.0619 15.2754 38.2166L13.548 36.6494C13.4228 36.5483 13.2476 36.7252 13.3728 36.8263C15.4256 38.6969 17.4534 40.5675 19.5063 42.4128C20.0821 42.9436 20.6579 43.4492 21.2337 43.98C21.3589 44.1064 21.5341 43.9295 21.4089 43.8031Z" fill="#2E3131"/>
<path id="Vector_22" d="M33.3504 36.3966C30.7468 38.3683 28.1182 40.3652 25.5146 42.3369C24.7885 42.893 24.0625 43.4492 23.3115 44.0053C23.1863 44.1064 23.3115 44.3339 23.4367 44.2328C26.0403 42.2611 28.6689 40.2641 31.2725 38.2924C31.9986 37.7363 32.7246 37.1802 33.4756 36.6241C33.6008 36.4977 33.4756 36.2955 33.3504 36.3966Z" fill="#2E3131"/>
<path id="Vector_23" d="M21.8846 44.8142L20.1822 49.8446C20.1322 49.9962 20.3825 50.0721 20.4326 49.9204C21.0084 48.2521 21.5842 46.5584 22.135 44.8901C22.185 44.7384 21.9347 44.6626 21.8846 44.8142Z" fill="#2E3131"/>
<path id="Vector_24" d="M24.4631 50.1479C23.9374 48.429 23.4117 46.7101 22.886 44.9912C22.8359 44.8395 22.5855 44.8901 22.6356 45.067C23.1613 46.7859 23.6871 48.5048 24.2128 50.2237C24.2629 50.3501 24.5132 50.2996 24.4631 50.1479Z" fill="#2E3131"/>
<path id="Vector_25" d="M8.69126 46.3815C8.36581 48.4796 8.01532 50.6029 7.68987 52.701C7.66483 52.8527 7.91518 52.9285 7.94022 52.7768C8.26567 50.6787 8.61615 48.5554 8.94161 46.4573C8.94161 46.2804 8.71629 46.2045 8.69126 46.3815Z" fill="#2E3131"/>
<path id="Vector_26" d="M38.4826 47.1145C38.4575 46.9629 38.2072 47.0134 38.2322 47.1904L38.9833 52.6251C39.0083 52.7768 39.2587 52.7263 39.2336 52.5493L38.4826 47.1145Z" fill="#2E3131"/>
</g>
</g>
</g>
</svg>
