<svg width="42" height="42" viewBox="0 0 42 42" fill="none" xmlns="http://www.w3.org/2000/svg">
<g id="9026364_barbell_thin_icon 1">
<path id="Vector" d="M14.4375 9.1875H10.5C9.77513 9.1875 9.1875 9.77513 9.1875 10.5V31.5C9.1875 32.2249 9.77513 32.8125 10.5 32.8125H14.4375C15.1624 32.8125 15.75 32.2249 15.75 31.5V10.5C15.75 9.77513 15.1624 9.1875 14.4375 9.1875Z" stroke="#FF676B" stroke-width="2" stroke-linecap="round" stroke-linejoin="round"/>
<path id="Vector_2" d="M31.5 9.1875H27.5625C26.8376 9.1875 26.25 9.77513 26.25 10.5V31.5C26.25 32.2249 26.8376 32.8125 27.5625 32.8125H31.5C32.2249 32.8125 32.8125 32.2249 32.8125 31.5V10.5C32.8125 9.77513 32.2249 9.1875 31.5 9.1875Z" stroke="#FF676B" stroke-width="2" stroke-linecap="round" stroke-linejoin="round"/>
<path id="Vector_3" d="M32.8125 13.125H36.75C37.0981 13.125 37.4319 13.2633 37.6781 13.5094C37.9242 13.7556 38.0625 14.0894 38.0625 14.4375V27.5625C38.0625 27.9106 37.9242 28.2444 37.6781 28.4906C37.4319 28.7367 37.0981 28.875 36.75 28.875H32.8125" stroke="#FF676B" stroke-width="2" stroke-linecap="round" stroke-linejoin="round"/>
<path id="Vector_4" d="M9.1875 28.875H5.25C4.9019 28.875 4.56806 28.7367 4.32192 28.4906C4.07578 28.2444 3.9375 27.9106 3.9375 27.5625V14.4375C3.9375 14.0894 4.07578 13.7556 4.32192 13.5094C4.56806 13.2633 4.9019 13.125 5.25 13.125H9.1875" stroke="#FF676B" stroke-width="2" stroke-linecap="round" stroke-linejoin="round"/>
<path id="Vector_5" d="M15.75 21H26.25" stroke="#FF676B" stroke-width="2" stroke-linecap="round" stroke-linejoin="round"/>
<path id="Vector_6" d="M38.0625 21H40.6875" stroke="#FF676B" stroke-width="2" stroke-linecap="round" stroke-linejoin="round"/>
<path id="Vector_7" d="M1.3125 21H3.9375" stroke="#FF676B" stroke-width="2" stroke-linecap="round" stroke-linejoin="round"/>
</g>
</svg>
