<svg width="42" height="42" viewBox="0 0 42 42" fill="none" xmlns="http://www.w3.org/2000/svg">
<g id="9026364_barbell_thin_icon 1">
<path id="2134717 1 (Traced)" fill-rule="evenodd" clip-rule="evenodd" d="M35.1749 12.2684C33.5612 12.8674 32.3977 14.6386 32.4016 16.4902C32.4054 18.2663 33.2571 19.7088 34.8058 20.5622C35.3238 20.8478 35.7652 20.9351 36.705 20.9382C37.756 20.9414 38.0509 20.8719 38.7871 20.4473C40.2286 19.6157 40.9826 18.2721 40.9998 16.5041C41.0301 13.4029 38.0187 11.2131 35.1749 12.2684ZM37.8445 14.101C38.7824 14.6 39.1813 15.1971 39.2782 16.2473C39.3433 16.9523 39.2831 17.2333 38.9345 17.8526C37.9465 19.6077 35.4421 19.6147 34.4535 17.865C33.9905 17.0455 34.0242 15.6592 34.5247 14.9438C34.9077 14.3964 36.1139 13.7186 36.705 13.7186C36.9364 13.7186 37.4491 13.8907 37.8445 14.101ZM3.27471 14.1615C2.62711 14.5055 2.28477 14.9865 1.51832 16.6292C1.02776 17.6808 0.94826 18.0034 1.02564 18.6321C1.13061 19.4863 1.72483 20.3963 2.42321 20.7723C3.08812 21.1302 4.19119 21.0906 4.92287 20.6824L5.54076 20.3375L7.16525 21.2951C8.05854 21.8218 8.78957 22.2715 8.78957 22.2945C8.78957 22.3176 7.67899 22.4748 6.32158 22.6441C2.99801 23.0587 2.71771 23.212 1.81968 25.1062C1.29582 26.2112 1.13273 26.7549 1.12587 27.4181C1.1102 28.9265 1.9826 29.8466 3.56415 29.9895C4.49712 30.074 5.28495 29.6482 5.87771 28.7396L6.31244 28.0731L12.6525 27.2454C19.218 26.3884 21.0053 25.9975 24.3476 24.6878L25.4409 24.2593V25.7218C25.4409 27.5374 25.7937 28.324 26.8463 28.8545C27.4934 29.1806 27.7832 29.2 31.294 29.1519C34.7838 29.104 35.082 29.0756 35.5099 28.7504C36.0708 28.3243 36.705 27.0824 36.705 26.4105C36.705 25.7173 36.1399 24.7507 35.4439 24.2535C34.9036 23.8675 34.6741 23.8267 32.759 23.7756L30.6648 23.7195L30.6657 22.4159C30.6662 21.4188 30.7613 20.8721 31.0699 20.0923C31.8384 18.1497 31.4457 16.3326 29.9634 14.9743C29.0983 14.1815 28.3046 13.8885 27.0213 13.8885C26.2754 13.8885 25.8874 14.0102 24.8894 14.5575C23.4625 15.3399 20.7436 16.4696 18.0947 17.3806L16.2174 18.0263L13.8117 17.8214L11.4061 17.6162L8.42454 15.8115C5.92636 14.2995 5.31058 13.9965 4.62674 13.9421C4.07969 13.8984 3.63386 13.9708 3.27471 14.1615ZM7.65042 17.3968L10.6669 19.2052L12.381 19.4486C15.4189 19.8798 16.5997 19.8113 18.7477 19.0799C21.3888 18.1807 24.2 17.0133 25.4089 16.3139C27.036 15.3727 28.3978 15.5238 29.2692 16.7421C29.7593 17.4272 29.8155 18.9848 29.3781 19.7566C29.0709 20.2986 29.0327 20.6261 29.0348 22.6939C29.0363 23.9739 29.1068 25.136 29.1919 25.2762C29.3163 25.4815 29.8533 25.5417 31.9493 25.5852C34.2341 25.6324 34.5856 25.6775 34.8254 25.9533C35.0533 26.2156 35.0652 26.3335 34.8979 26.6643C34.7875 26.8824 34.6163 27.1171 34.5175 27.1858C34.1971 27.4084 27.4885 27.3401 27.2693 27.1118C27.1382 26.9753 27.0734 26.2166 27.0734 24.8173C27.0734 22.9533 27.038 22.6898 26.7469 22.3868C26.3113 21.9333 26.182 21.9486 24.5114 22.6526C20.979 24.141 19.2879 24.5331 12.4677 25.4451C8.96326 25.9137 5.85698 26.3386 5.56492 26.3895C5.15256 26.461 4.96139 26.6293 4.70999 27.1424C4.53189 27.5058 4.22743 27.919 4.03316 28.0606C3.72103 28.2883 3.62635 28.2892 3.2148 28.0675C2.91459 27.9059 2.74938 27.6827 2.74954 27.4388C2.74971 27.0228 3.60431 25.0364 3.8518 24.8773C3.93717 24.8222 6.52384 24.433 9.59977 24.0122C12.6757 23.5913 15.2945 23.1588 15.4192 23.051C15.7095 22.8001 15.7128 21.9763 15.4245 21.7272C15.3027 21.6219 14.0855 21.4148 12.7194 21.2667L10.2359 20.9977L7.76567 19.5677C6.40712 18.7811 5.23712 18.1377 5.16562 18.1377C5.09428 18.1377 4.75113 18.4054 4.40341 18.7325C3.69295 19.4008 3.4773 19.4506 3.04796 19.0461C2.61796 18.6409 2.6782 18.0566 3.26231 16.9686C3.7829 15.9988 4.13846 15.5882 4.45761 15.5882C4.55458 15.5882 5.99149 16.402 7.65042 17.3968Z" fill="#FF676B"/>
</g>
</svg>
