<svg width="30" height="30" viewBox="0 0 30 30" fill="none" xmlns="http://www.w3.org/2000/svg">
    <path
        d="M14.1003 7.4002L13.45 6.72589C12.3844 5.62083 10.9391 5 9.43211 5C6.25 5 3.75 7.5 3.75 12.1426C3.75 13.3766 4.0275 14.5403 4.49534 15.625C7.00628 21.4473 15 25 15 25C15 25 22.9937 21.4473 25.5046 15.625C25.9725 14.5403 26.25 13.3766 26.25 12.1426C26.25 7.5 23.706 5 20.5679 5C19.0609 5 17.6156 5.62083 16.55 6.72589L15.8997 7.4002C15.4082 7.90997 14.5918 7.90997 14.1003 7.4002Z"
        stroke="#001A72" stroke-width="1.5" stroke-linecap="round" stroke-linejoin="round" />
    <path
        d="M25.5046 15.625H20.4061C20.1591 15.625 19.9354 15.4797 19.835 15.2539L18.0604 11.2609C17.8421 10.7699 17.147 10.765 16.9218 11.2529L14.295 16.9444C14.0754 17.4202 13.4029 17.4307 13.1685 16.9619L11.809 14.243C11.5787 13.7824 10.9213 13.7824 10.691 14.243L10.1728 15.2795C10.0669 15.4913 9.85049 15.625 9.61375 15.625H4.49536"
        stroke="#001A72" stroke-width="1.5" stroke-linecap="round" stroke-linejoin="round" />
</svg>
