<svg width="30" height="30" viewBox="0 0 30 30" fill="none" xmlns="http://www.w3.org/2000/svg">
<path d="M5 23.75H25" stroke="#001A72" stroke-width="1.5" stroke-linecap="round" stroke-linejoin="round"/>
<path d="M6.25 20C5.55965 20 5 19.4404 5 18.75V9.26777C5 8.15413 6.34642 7.59642 7.13389 8.38388L9.11611 10.3661C9.60427 10.8543 10.3957 10.8543 10.8839 10.3661L14.1161 7.13388C14.6042 6.64572 15.3957 6.64572 15.8839 7.13388L19.1161 10.3661C19.6042 10.8543 20.3957 10.8543 20.8839 10.3661L22.8661 8.38388C23.6536 7.59642 25 8.15413 25 9.26776V18.75C25 19.4404 24.4404 20 23.75 20H6.25Z" stroke="#001A72" stroke-width="1.5" stroke-linecap="round" stroke-linejoin="round"/>
</svg>
