<svg width="59" height="45" viewBox="0 0 59 45" fill="none" xmlns="http://www.w3.org/2000/svg">
<g id="Discord-Logo-White 1" clip-path="url(#clip0_188_209)">
<g id="Group">
<path id="Vector" d="M49.946 4.00729C46.1855 2.30842 42.153 1.05677 37.9367 0.339891C37.86 0.326055 37.7833 0.360631 37.7437 0.429784C37.2251 1.33797 36.6506 2.52278 36.2484 3.45404C31.7135 2.78558 27.2019 2.78558 22.76 3.45404C22.3577 2.50208 21.7624 1.33797 21.2414 0.429784C21.2019 0.362938 21.1252 0.328363 21.0484 0.339891C16.8344 1.05447 12.8019 2.30613 9.03913 4.00729C9.00656 4.02112 8.97864 4.04419 8.96011 4.07414C1.31125 15.3253 -0.784086 26.2999 0.243818 37.1384C0.248469 37.1914 0.278701 37.2422 0.320562 37.2744C5.36705 40.9233 10.2554 43.1386 15.0531 44.6069C15.1298 44.6299 15.2112 44.6023 15.2601 44.54C16.3949 43.0141 17.4066 41.4052 18.274 39.7132C18.3251 39.6141 18.2763 39.4965 18.1717 39.4573C16.567 38.858 15.0391 38.1273 13.5693 37.2975C13.4531 37.2306 13.4438 37.0669 13.5507 36.9885C13.86 36.7603 14.1694 36.5229 14.4647 36.2832C14.5182 36.2394 14.5926 36.2302 14.6554 36.2578C24.3112 40.5984 34.7646 40.5984 44.3064 36.2578C44.3692 36.2279 44.4437 36.2371 44.4995 36.2809C44.7949 36.5206 45.1042 36.7603 45.4158 36.9885C45.5227 37.0669 45.5158 37.2306 45.3995 37.2975C43.9297 38.1434 42.4018 38.858 40.7948 39.455C40.6902 39.4942 40.6437 39.6141 40.6949 39.7132C41.5809 41.4028 42.5925 43.0117 43.7065 44.5377C43.753 44.6023 43.8367 44.6299 43.9135 44.6069C48.7343 43.1386 53.6227 40.9233 58.6692 37.2744C58.7134 37.2422 58.7413 37.1937 58.746 37.1407C59.9762 24.6102 56.6855 13.7256 50.0227 4.07643C50.0064 4.04419 49.9786 4.02112 49.946 4.00729ZM19.7159 30.5389C16.8089 30.5389 14.4135 27.9111 14.4135 24.684C14.4135 21.4568 16.7624 18.8291 19.7159 18.8291C22.6926 18.8291 25.0647 21.4799 25.0182 24.684C25.0182 27.9111 22.6693 30.5389 19.7159 30.5389ZM39.3204 30.5389C36.4135 30.5389 34.0182 27.9111 34.0182 24.684C34.0182 21.4568 36.3669 18.8291 39.3204 18.8291C42.2972 18.8291 44.6692 21.4799 44.6228 24.684C44.6228 27.9111 42.2972 30.5389 39.3204 30.5389Z" fill="white"/>
</g>
</g>
<defs>
<clipPath id="clip0_188_209">
<rect width="59" height="45" fill="white"/>
</clipPath>
</defs>
</svg>
