<svg width="65" height="48" viewBox="0 0 65 48" fill="none" xmlns="http://www.w3.org/2000/svg">
    <path
        d="M55.0613 3.95903C50.8535 2.10952 46.3546 0.765313 41.6512 0C41.0734 0.98117 40.3986 2.30084 39.9334 3.35069C34.9334 2.64426 29.9794 2.64426 25.0714 3.35069C24.6063 2.30084 23.916 0.98117 23.3333 0C18.6247 0.765313 14.1206 2.11443 9.91303 3.96884C1.42633 16.0176 -0.874281 27.7672 0.276024 39.3498C5.90485 43.2991 11.3598 45.698 16.7228 47.2678C18.0469 45.5557 19.2279 43.7357 20.2453 41.8175C18.3077 41.1257 16.4519 40.2722 14.6983 39.2811C15.1635 38.9574 15.6185 38.6189 16.0582 38.2706C26.7536 42.9703 38.3741 42.9703 48.9417 38.2706C49.3863 38.6189 49.8414 38.9574 50.3015 39.2811C48.5428 40.2769 46.6819 41.1306 44.7442 41.8224C45.7616 43.7357 46.9375 45.5607 48.2667 47.2727C53.6347 45.7029 59.0949 43.304 64.7237 39.3498C66.0735 25.9226 62.418 14.2809 55.0613 3.95903ZM21.7024 32.2266C18.4917 32.2266 15.8588 29.4105 15.8588 25.9815C15.8588 22.5522 18.4355 19.7314 21.7024 19.7314C24.9693 19.7314 27.6021 22.5473 27.5459 25.9815C27.5511 29.4105 24.9693 32.2266 21.7024 32.2266ZM43.2975 32.2266C40.0868 32.2266 37.4538 29.4105 37.4538 25.9815C37.4538 22.5522 40.0306 19.7314 43.2975 19.7314C46.5642 19.7314 49.1972 22.5473 49.141 25.9815C49.141 29.4105 46.5642 32.2266 43.2975 32.2266Z"
        fill="#5865F2" />
</svg>
