<svg width="22" height="22" viewBox="0 0 22 22" fill="none" xmlns="http://www.w3.org/2000/svg">
    <path
        d="M8.95038 4.85393C9.59421 4.68165 10.278 4.58334 11 4.58334C14.4443 4.58334 17.017 6.82038 18.5466 8.65274C19.6944 10.0278 19.6942 11.9725 18.5464 13.3475C18.3706 13.5582 18.1809 13.7742 17.9777 13.9916"
        stroke="#708090" stroke-width="1.5" stroke-linecap="round" stroke-linejoin="round" />
    <path d="M11.4583 8.28802C12.6099 8.48122 13.5188 9.39006 13.7119 10.5417" stroke="#708090"
        stroke-width="1.5" stroke-linecap="round" stroke-linejoin="round" />
    <path d="M2.75 2.75L19.25 19.25" stroke="#708090" stroke-width="1.5" stroke-linecap="round"
        stroke-linejoin="round" />
    <path d="M10.5417 13.7119C9.54782 13.5452 8.73477 12.8454 8.40649 11.9167" stroke="#708090"
        stroke-width="1.5" stroke-linecap="round" stroke-linejoin="round" />
    <path
        d="M3.98669 8.04669C3.79693 8.25113 3.61917 8.45417 3.45363 8.65247C2.30578 10.0275 2.30561 11.9722 3.45342 13.3473C4.98302 15.1796 7.55572 17.4167 11 17.4167C11.7352 17.4167 12.4307 17.3147 13.0848 17.1365"
        stroke="#708090" stroke-width="1.5" stroke-linecap="round" stroke-linejoin="round" />
</svg>
