<svg width="57" height="57" viewBox="0 0 57 57" fill="none" xmlns="http://www.w3.org/2000/svg">
<g id="9040469_gender_female_icon 1">
<path id="Vector" fill-rule="evenodd" clip-rule="evenodd" d="M28.5 3.5625C24.7207 3.5625 21.0961 5.06384 18.4237 7.73623C15.7513 10.4086 14.25 14.0332 14.25 17.8125C14.25 21.5918 15.7513 25.2164 18.4237 27.8888C21.0961 30.5612 24.7207 32.0625 28.5 32.0625C32.2793 32.0625 35.9039 30.5612 38.5763 27.8888C41.2487 25.2164 42.75 21.5918 42.75 17.8125C42.75 14.0332 41.2487 10.4086 38.5763 7.73623C35.9039 5.06384 32.2793 3.5625 28.5 3.5625ZM10.6875 17.8125C10.6875 14.3655 11.6877 10.9925 13.5668 8.10268C15.4459 5.21285 18.1231 2.93031 21.2737 1.53189C24.4243 0.133475 27.913 -0.320742 31.3167 0.22433C34.7203 0.769402 37.8927 2.29034 40.4491 4.6027C43.0054 6.91505 44.836 9.91946 45.7186 13.2516C46.6013 16.5837 46.4982 20.1003 45.4218 23.375C44.3454 26.6496 42.342 29.5416 39.6545 31.7002C36.9671 33.8588 33.711 35.1912 30.2812 35.5359V42.75H37.4062C37.8787 42.75 38.3317 42.9377 38.6658 43.2717C38.9998 43.6058 39.1875 44.0588 39.1875 44.5312C39.1875 45.0037 38.9998 45.4567 38.6658 45.7908C38.3317 46.1248 37.8787 46.3125 37.4062 46.3125H30.2812V55.2188C30.2812 55.6912 30.0936 56.1442 29.7595 56.4783C29.4255 56.8123 28.9724 57 28.5 57C28.0276 57 27.5745 56.8123 27.2405 56.4783C26.9064 56.1442 26.7188 55.6912 26.7188 55.2188V46.3125H19.5938C19.1213 46.3125 18.6683 46.1248 18.3342 45.7908C18.0002 45.4567 17.8125 45.0037 17.8125 44.5312C17.8125 44.0588 18.0002 43.6058 18.3342 43.2717C18.6683 42.9377 19.1213 42.75 19.5938 42.75H26.7188V35.5359C22.3251 35.0944 18.252 33.0365 15.2898 29.7616C12.3276 26.4867 10.6874 22.2283 10.6875 17.8125Z" fill="white"/>
</g>
</svg>
