<svg width="110" height="101" viewBox="0 0 110 101" fill="none" xmlns="http://www.w3.org/2000/svg">
<g id="Group 154">
<path id="Vector" fill-rule="evenodd" clip-rule="evenodd" d="M27.1562 17.8759C25.7801 18.2681 26.1923 19.2719 27.2293 19.1057L28.0337 18.9395L28.6785 17.8293H27.3556L27.1562 17.8759Z" fill="#2EB6B5"/>
<path id="Vector_2" fill-rule="evenodd" clip-rule="evenodd" d="M26.7839 21.1068L27.3756 20.083L27.0764 20.2027C26.518 20.4819 26.518 20.8674 26.7839 21.1068Z" fill="#2EB6B5"/>
<path id="Vector_3" fill-rule="evenodd" clip-rule="evenodd" d="M37.4139 53.7476C36.6162 54.7181 36.1309 55.456 36.2705 55.7087C36.676 56.4466 36.7757 56.3003 36.9818 56.4399C36.0511 57.6565 35.393 58.2947 34.3892 59.4048H34.675H40.678L37.6798 54.2063L37.4139 53.7476Z" fill="#D02255"/>
<path id="Vector_4" fill-rule="evenodd" clip-rule="evenodd" d="M41.3095 49.5726C39.8935 50.9886 38.4044 52.5441 37.4072 53.7474L37.6731 54.2127L40.6713 59.4113L43.6695 54.2127L46.6676 49.0142H41.5289C41.4624 49.2003 41.3893 49.3864 41.3095 49.5726Z" fill="#C11D7B"/>
<path id="Vector_5" fill-rule="evenodd" clip-rule="evenodd" d="M29.4829 19.2188L27.3756 20.0763L26.7839 21.1001C27.0033 21.2995 27.4155 21.3859 27.8343 21.1998L30.2208 20.4885L29.4829 19.2188Z" fill="#3697B2"/>
<path id="Vector_6" fill-rule="evenodd" clip-rule="evenodd" d="M28.6719 17.8228L28.0337 18.9396L29.1838 18.7003L28.6719 17.8228Z" fill="#3697B2"/>
<path id="Vector_7" fill-rule="evenodd" clip-rule="evenodd" d="M29.3567 21.6851C28.5257 22.3432 29.3567 23.1476 30.1677 22.762L31.2978 22.3632L30.5666 21.1001L29.3567 21.6851Z" fill="#3697B2"/>
<path id="Vector_8" fill-rule="evenodd" clip-rule="evenodd" d="M28.6719 17.8228L29.1771 18.7003L32.3215 18.0554L29.4696 19.2188L30.2075 20.4952L34.3624 19.2653L30.5598 21.1001L31.2911 22.3632L36.1241 20.668C35.8382 21.2597 35.7518 21.4923 35.6521 22.2236C35.5723 22.8153 35.313 23.4933 35.4659 24.0251C35.6255 24.6035 36.0709 24.9957 36.4697 25.1154L37.3007 23.6795C37.5666 22.7754 37.9788 21.6253 38.9826 20.7677L40.6844 17.8228H34.6815H28.6719Z" fill="#2EB6B5"/>
<path id="Vector_9" fill-rule="evenodd" clip-rule="evenodd" d="M37.5535 47.5983H44.3741L40.884 41.5554L37.5535 47.5983Z" fill="#913A8E"/>
<path id="Vector_10" fill-rule="evenodd" clip-rule="evenodd" d="M44.0549 44.4604L46.6875 49.0141L49.6856 43.8155L52.6838 38.6169H50.3836C47.8974 40.0728 45.7767 42.014 44.0549 44.4604Z" fill="#6B4092"/>
<path id="Vector_11" fill-rule="evenodd" clip-rule="evenodd" d="M46.6809 49.0142L43.6828 54.2127L40.678 59.4113H46.6809H52.6839L49.6857 54.2127L46.6809 49.0142Z" fill="#D02255"/>
<path id="Vector_12" fill-rule="evenodd" clip-rule="evenodd" d="M46.6809 49.0142L49.6857 54.2127L52.6839 59.4113L55.6887 54.2127L58.6868 49.0142H52.6839H46.6809Z" fill="#C11D7B"/>
<path id="Vector_13" fill-rule="evenodd" clip-rule="evenodd" d="M36.5163 25.1287C36.9218 25.2217 37.0348 24.5702 37.3007 23.6794L36.4697 25.1154C36.483 25.122 36.503 25.1287 36.5163 25.1287Z" fill="#3697B2"/>
<path id="Vector_14" fill-rule="evenodd" clip-rule="evenodd" d="M38.9827 20.7677C38.996 20.7544 39.0093 20.7411 39.0292 20.7278C39.7871 20.0963 40.4252 19.1922 41.0767 18.5008L40.6845 17.8228L38.9827 20.7677Z" fill="#3697B2"/>
<path id="Vector_15" fill-rule="evenodd" clip-rule="evenodd" d="M41.0702 18.5008C41.3228 18.2349 41.5754 18.0022 41.8347 17.8228H40.678L41.0702 18.5008Z" fill="#2EB6B5"/>
<path id="Vector_16" fill-rule="evenodd" clip-rule="evenodd" d="M52.6839 38.6169L49.6857 43.8155L46.6809 49.0141H52.6839H58.6868L55.6887 43.8155L52.6839 38.6169Z" fill="#913A8E"/>
<path id="Vector_17" fill-rule="evenodd" clip-rule="evenodd" d="M52.6838 38.6169L55.6886 43.8155L58.6868 49.0141L61.6916 43.8155L64.6898 38.6169H58.6868H52.6838Z" fill="#6B4092"/>
<path id="Vector_18" fill-rule="evenodd" clip-rule="evenodd" d="M58.6868 49.0142L55.6886 54.2127L52.6838 59.4113H58.6868H64.6898L61.6916 54.2127L58.6868 49.0142Z" fill="#D02255"/>
<path id="Vector_19" fill-rule="evenodd" clip-rule="evenodd" d="M64.6897 49.0142H58.6868L61.6849 54.2127L64.6831 59.4113L67.6812 54.2127L70.1675 49.9116C69.9481 49.6125 69.7155 49.32 69.4628 49.0142H64.6897Z" fill="#C11D7B"/>
<path id="Vector_20" fill-rule="evenodd" clip-rule="evenodd" d="M2.92505 90.6028C3.96211 92.4775 5.31161 95.1499 6.79407 97.3104L7.66493 95.8014L10.6631 90.6028H4.66012H2.92505Z" fill="#B4CE4C"/>
<path id="Vector_21" fill-rule="evenodd" clip-rule="evenodd" d="M1.02368 89.6192H8.76837L5.25168 83.5298L1.02368 89.6192Z" fill="#F8AC2D"/>
<path id="Vector_22" fill-rule="evenodd" clip-rule="evenodd" d="M8.78843 84.334C7.6716 84.9921 7.93752 84.2475 7.48547 84.3938C7.38575 84.427 7.27274 84.4603 7.15308 84.5002L7.6716 85.391L10.6698 90.5895L13.6679 85.391L16.6661 80.1924H13.4087C12.3517 81.6084 11.0886 82.9712 8.78843 84.334Z" fill="#ED8924"/>
<path id="Vector_23" fill-rule="evenodd" clip-rule="evenodd" d="M13.8342 96.0872L13.668 95.8014L10.6698 90.6028L7.67164 95.8014L6.80078 97.3104C8.22341 99.3845 9.77235 101 11.2947 101H16.5265C16.573 100.987 16.6129 100.973 16.6528 100.96L14.5056 97.2373C14.1267 96.9514 13.8873 96.5725 13.8342 96.0872Z" fill="#CFD952"/>
<path id="Vector_24" fill-rule="evenodd" clip-rule="evenodd" d="M14.4988 97.2373L16.646 100.96L16.6992 100.947L17.9423 98.7995C17.5501 98.3408 16.8587 97.9752 16.1807 97.8755C15.5159 97.7625 14.9242 97.563 14.4988 97.2373Z" fill="#B4CE4C"/>
<path id="Vector_25" fill-rule="evenodd" clip-rule="evenodd" d="M13.7344 90.636C13.7344 90.6227 13.7344 90.6161 13.7277 90.6028H10.6631L13.6612 95.8014L13.8274 96.0872C13.8208 96.0207 13.8141 95.9476 13.8208 95.8745C13.8607 93.6408 13.8673 92.1451 13.7344 90.636Z" fill="#B4CE4C"/>
<path id="Vector_26" fill-rule="evenodd" clip-rule="evenodd" d="M13.4087 80.2057H16.6661L15.2169 77.6995C14.5787 78.5504 14.0269 79.388 13.4087 80.2057Z" fill="#E97924"/>
<path id="Vector_27" fill-rule="evenodd" clip-rule="evenodd" d="M16.7257 77.9986L21.1997 70.2539L14.0134 73.5379L16.7257 77.9986Z" fill="#E65427"/>
<path id="Vector_28" fill-rule="evenodd" clip-rule="evenodd" d="M19.5046 85.1185L16.666 80.2058L13.6678 85.4044L10.6697 90.603H13.7343C13.6279 89.7321 12.5709 90.2772 13.6612 89.1205C14.1199 88.6286 16.6062 86.96 19.5046 85.1185Z" fill="#F8AC2D"/>
<path id="Vector_29" fill-rule="evenodd" clip-rule="evenodd" d="M16.6726 80.2058L19.5112 85.1185C22.29 83.3502 25.4411 81.4224 27.5683 80.2058H22.6756H16.6726Z" fill="#ED8924"/>
<path id="Vector_30" fill-rule="evenodd" clip-rule="evenodd" d="M16.6992 100.94C18.4675 100.388 18.534 99.4843 17.9424 98.793L16.6992 100.94Z" fill="#CFD952"/>
<path id="Vector_31" fill-rule="evenodd" clip-rule="evenodd" d="M23.3869 71.0449C22.7553 71.4371 22.0108 71.9025 21.1399 72.4609L19.6708 75.007L16.6726 80.2056H22.6756H27.5683C27.8675 80.0327 28.1534 79.8732 28.406 79.7336L25.6804 75.007L23.3869 71.0449Z" fill="#E97924"/>
<path id="Vector_32" fill-rule="evenodd" clip-rule="evenodd" d="M25.3813 69.8086C24.8694 70.1277 24.2246 70.5266 23.387 71.0451L25.6738 75.0072L28.3994 79.7338C28.7052 79.5676 28.9711 79.4213 29.1971 79.3016L31.6768 75.0072L34.6749 69.8086H28.672H25.3813Z" fill="#E65427"/>
<path id="Vector_33" fill-rule="evenodd" clip-rule="evenodd" d="M45.9231 91.9191L46.6809 90.6028H44.6201C44.8129 91.2875 45.1785 91.9323 45.9231 91.9191Z" fill="#B4CE4C"/>
<path id="Vector_34" fill-rule="evenodd" clip-rule="evenodd" d="M31.0253 63.4797C27.143 68.4855 28.1136 68.1 25.3813 69.8018H28.6787H34.6816L31.6835 64.6032L31.0253 63.4797Z" fill="#E74426"/>
<path id="Vector_35" fill-rule="evenodd" clip-rule="evenodd" d="M34.389 59.4114C33.7574 60.1095 32.9863 61.0003 31.916 62.3431C31.5903 62.7486 31.2978 63.1276 31.0186 63.4799L31.67 64.6034L34.6682 69.8019L37.6664 64.6034L40.6645 59.4048H34.6615H34.389V59.4114Z" fill="#E62A28"/>
<path id="Vector_36" fill-rule="evenodd" clip-rule="evenodd" d="M34.6751 69.8086L31.6769 75.0072L29.1973 79.3016C29.5363 79.1222 29.7823 79.0091 29.9152 78.9759C32.7472 78.1582 35.3066 76.7555 37.6998 75.0404L37.6799 75.0072L34.6751 69.8086Z" fill="#E97924"/>
<path id="Vector_37" fill-rule="evenodd" clip-rule="evenodd" d="M40.678 69.8086H34.675L37.6732 75.0072L37.6931 75.0404C39.8603 73.4848 41.8946 71.6766 43.8823 69.8086H40.678Z" fill="#E65427"/>
<path id="Vector_38" fill-rule="evenodd" clip-rule="evenodd" d="M42.7918 74.2159L43.0045 76.1836L43.6826 75.007L45.2515 72.2947C43.8555 72.4343 42.6522 72.9262 42.7918 74.2159Z" fill="#E65427"/>
<path id="Vector_39" fill-rule="evenodd" clip-rule="evenodd" d="M44.4073 89.3466C44.4405 89.6657 44.4937 90.1443 44.62 90.603H46.6808L44.0549 86.0559L44.4073 89.3466Z" fill="#F8AC2D"/>
<path id="Vector_40" fill-rule="evenodd" clip-rule="evenodd" d="M43.4302 80.2057L44.0551 86.0491L46.6809 90.5962L47.7778 88.6949C47.8776 87.6313 47.9573 86.4014 48.2631 85.1849C48.7218 83.3434 50.1046 81.6017 50.8691 80.1924H46.6809H43.4302V80.2057Z" fill="#ED8924"/>
<path id="Vector_41" fill-rule="evenodd" clip-rule="evenodd" d="M45.9229 91.9192C46.1289 91.9126 46.3683 91.8594 46.6342 91.7464C46.8269 91.66 46.9865 91.5337 47.1195 91.3675L46.6807 90.6096L45.9229 91.9192Z" fill="#CFD952"/>
<path id="Vector_42" fill-rule="evenodd" clip-rule="evenodd" d="M47.1197 91.3606C47.2792 91.1612 47.3922 90.9019 47.4853 90.6028H46.6809L47.1197 91.3606Z" fill="#B4CE4C"/>
<path id="Vector_43" fill-rule="evenodd" clip-rule="evenodd" d="M40.6777 59.4114L37.6796 64.61L34.6814 69.8085H40.6844H43.8886C44.4935 69.2368 45.0985 68.6651 45.6968 68.0934L43.6892 64.61L40.6777 59.4114Z" fill="#E74426"/>
<path id="Vector_44" fill-rule="evenodd" clip-rule="evenodd" d="M40.678 59.4114L43.6761 64.61L45.6838 68.0934C46.907 66.9167 48.1235 65.7467 49.3534 64.6299C49.4265 64.5634 49.5195 64.6166 49.6259 64.703L49.6724 64.6166L52.6706 59.418H46.6676H40.678V59.4114Z" fill="#E62A28"/>
<path id="Vector_45" fill-rule="evenodd" clip-rule="evenodd" d="M51.5402 78.2245L49.6788 75.007L48.1365 72.3346C47.3654 72.2614 46.2552 72.1883 45.2448 72.2947L43.6759 75.007L42.9978 76.1836L43.0643 76.8152L43.4233 80.2056H46.674H50.8621C51.0283 79.8998 51.1613 79.6139 51.2544 79.3413C51.5003 78.6433 50.5763 78.6633 51.5402 78.2245Z" fill="#E97924"/>
<path id="Vector_46" fill-rule="evenodd" clip-rule="evenodd" d="M49.6258 72.7802C48.5356 72.9065 49.0009 72.4212 48.5954 72.3813C48.4625 72.3681 48.3096 72.3481 48.1367 72.3348L49.679 75.0072L51.5404 78.2248C51.5936 78.1982 51.6534 78.1716 51.7199 78.145C52.4113 77.8591 53.2954 77.5932 54.3325 77.3406L55.682 75.0006L58.6801 69.802H57.0182C54.6981 71.1714 52.4378 72.4611 49.6258 72.7802Z" fill="#E65427"/>
<path id="Vector_47" fill-rule="evenodd" clip-rule="evenodd" d="M47.4853 90.6029C47.6382 90.0844 47.7113 89.4329 47.7778 88.7017L46.6809 90.6029H47.4853Z" fill="#F8AC2D"/>
<path id="Vector_48" fill-rule="evenodd" clip-rule="evenodd" d="M49.6857 64.61L49.6392 64.6964C49.8187 64.8426 50.0181 65.0886 50.1377 64.9689C50.6629 64.5435 52.4246 63.3801 54.0068 61.6916L52.6839 59.4114L49.6857 64.61Z" fill="#E74426"/>
<path id="Vector_49" fill-rule="evenodd" clip-rule="evenodd" d="M57.0249 69.8086H58.6869L58.268 69.084C57.8492 69.3233 57.4371 69.5626 57.0249 69.8086Z" fill="#E74426"/>
<path id="Vector_50" fill-rule="evenodd" clip-rule="evenodd" d="M52.6838 59.4114L54.0001 61.6916C54.2195 61.4589 54.4389 61.2129 54.6449 60.9603L59.8967 64.4704C60.3089 64.3307 61.0401 64.0781 61.2661 63.8521C61.4124 63.9984 61.6185 64.1579 61.8512 64.3241L64.6831 59.4114H58.6802H52.6838Z" fill="#E62A28"/>
<path id="Vector_51" fill-rule="evenodd" clip-rule="evenodd" d="M58.6866 69.8085L59.5043 68.3992C59.0855 68.6252 58.6733 68.8512 58.2678 69.0839L58.6866 69.8085Z" fill="#E62A28"/>
<path id="Vector_52" fill-rule="evenodd" clip-rule="evenodd" d="M58.6868 69.8086L55.6886 75.0072L54.3391 77.3472C56.4797 76.8287 59.2518 76.3567 62.1769 75.8514L61.6916 75.0072L58.6868 69.8086Z" fill="#E97924"/>
<path id="Vector_53" fill-rule="evenodd" clip-rule="evenodd" d="M58.6868 69.8086L61.6849 75.0072L62.1702 75.8514C64.025 75.5323 65.9395 75.1933 67.7943 74.821L70.686 69.8152H64.6831H58.6868V69.8086Z" fill="#E65427"/>
<path id="Vector_54" fill-rule="evenodd" clip-rule="evenodd" d="M63.6659 19.5977L64.6897 17.8228H61.6516C62.2964 18.4609 62.9679 19.0526 63.6659 19.5977Z" fill="#2EB6B5"/>
<path id="Vector_55" fill-rule="evenodd" clip-rule="evenodd" d="M49.0076 37.3473H62.4361L56.8852 27.7412L49.0076 37.3473Z" fill="#424D9C"/>
<path id="Vector_56" fill-rule="evenodd" clip-rule="evenodd" d="M61.1066 28.22C60.6346 28.8116 60.1759 29.4099 59.7305 30.0282L61.6916 33.4185L64.6897 38.6171L67.6879 33.4185L70.686 28.22H64.6831H61.1066Z" fill="#4F5BA5"/>
<path id="Vector_57" fill-rule="evenodd" clip-rule="evenodd" d="M69.0174 46.1157L67.6878 43.8155L64.6897 38.6169L61.6915 43.8155L58.6934 49.0141H64.6963H69.4761C69.0905 48.5421 68.6584 48.0568 68.1665 47.5449C68.3526 47.0264 68.6451 46.5544 69.0174 46.1157Z" fill="#913A8E"/>
<path id="Vector_58" fill-rule="evenodd" clip-rule="evenodd" d="M64.6897 38.6172L67.6879 43.8158L69.0174 46.116C70.2539 44.6734 72.3679 43.6496 74.3888 42.5993L76.689 38.6106H70.6927H64.6897V38.6172Z" fill="#6B4092"/>
<path id="Vector_59" fill-rule="evenodd" clip-rule="evenodd" d="M75.2198 56.8918C72.6936 53.8006 71.6566 51.8794 70.1741 49.9116L67.6879 54.2127L64.6897 59.4113H70.6927H75.8447C75.4924 58.8795 75.1135 58.3277 74.7146 57.756C74.5883 57.5765 75.3727 57.0514 75.2198 56.8918Z" fill="#D02255"/>
<path id="Vector_60" fill-rule="evenodd" clip-rule="evenodd" d="M64.6898 17.8228L63.666 19.5977C64.7363 20.442 65.8664 21.1998 67.0298 21.8779L64.6898 17.8228Z" fill="#3697B2"/>
<path id="Vector_61" fill-rule="evenodd" clip-rule="evenodd" d="M67.136 22.064C64.9023 23.8589 62.9146 25.9396 61.1064 28.2198H64.6896H70.6926L67.6944 23.0212L67.136 22.064Z" fill="#3697B2"/>
<path id="Vector_62" fill-rule="evenodd" clip-rule="evenodd" d="M64.6897 17.8228L67.0297 21.8779C67.0962 21.9178 67.1627 21.951 67.2292 21.9909C67.1959 22.0175 67.1693 22.0375 67.1361 22.064L67.6879 23.0213L70.686 28.2199L73.6842 23.0213L76.6823 17.8228H70.6927H64.6897Z" fill="#2EB6B5"/>
<path id="Vector_63" fill-rule="evenodd" clip-rule="evenodd" d="M70.6927 28.22L67.6945 33.4185L64.6897 38.6171H70.6927H76.6956L73.6908 33.4185L70.6927 28.22Z" fill="#424D9C"/>
<path id="Vector_64" fill-rule="evenodd" clip-rule="evenodd" d="M76.6956 28.22H70.6926L73.6908 33.4185L76.6889 38.6171L79.6871 33.4185L82.4991 28.5524C82.4725 28.4393 82.4459 28.333 82.4193 28.22H76.6956Z" fill="#4F5BA5"/>
<path id="Vector_65" fill-rule="evenodd" clip-rule="evenodd" d="M76.6957 38.6169L74.3955 42.6056C75.3328 42.1203 76.2502 41.6284 77.0546 41.0899C77.4867 43.5895 79.8201 47.1328 82.4327 48.5421L79.7005 43.8155L76.6957 38.6169Z" fill="#913A8E"/>
<path id="Vector_66" fill-rule="evenodd" clip-rule="evenodd" d="M79.6939 23.0213L76.6958 17.8228L73.6976 23.0213L70.6995 28.2199H76.7024H82.4328C82.4195 28.1601 82.3996 28.0936 82.3796 28.0338C82.4328 28.0072 82.486 27.9739 82.5392 27.9407L79.6939 23.0213Z" fill="#3697B2"/>
<path id="Vector_67" fill-rule="evenodd" clip-rule="evenodd" d="M64.6897 59.4114L61.8578 64.3241C63.0544 65.175 65.0886 66.2054 65.1551 66.3251C63.0012 66.7107 61.1863 67.5017 59.5044 68.3992L58.6868 69.8085H64.6897H70.6927L67.6945 64.61L64.6897 59.4114Z" fill="#E74426"/>
<path id="Vector_68" fill-rule="evenodd" clip-rule="evenodd" d="M70.6927 59.4114H64.6897L67.6879 64.61L70.686 69.8085L73.6842 64.61L76.2901 60.0961C76.1439 59.8701 75.991 59.644 75.8381 59.4114H70.6927Z" fill="#E62A28"/>
<path id="Vector_69" fill-rule="evenodd" clip-rule="evenodd" d="M67.801 74.8144C69.5826 74.4555 71.3177 74.0632 72.8932 73.6112L70.6928 69.802L67.801 74.8144Z" fill="#E97924"/>
<path id="Vector_70" fill-rule="evenodd" clip-rule="evenodd" d="M70.6926 69.8086L72.893 73.6178C76.2369 72.6605 78.8694 71.4572 79.7602 69.8086H76.7022H70.6926Z" fill="#E65427"/>
<path id="Vector_71" fill-rule="evenodd" clip-rule="evenodd" d="M76.2967 60.0962L73.6908 64.61L70.6926 69.8086H76.6956H79.7536C80.0461 69.2635 80.1524 68.6652 80.0261 68.0137C79.6339 65.9596 78.4506 63.4334 76.2967 60.0962Z" fill="#E74426"/>
<path id="Vector_72" fill-rule="evenodd" clip-rule="evenodd" d="M88.7015 17.8228L85.7033 23.0213L83.104 27.5152C83.7954 26.9302 84.1544 26.4649 84.6995 27.7213C84.7726 27.8942 84.8657 28.0604 84.9654 28.2133H87.9835C88.2029 28.0936 88.4089 28.0138 88.5818 28.0471C89.0671 28.1667 89.6787 27.7945 89.5524 27.3889C89.9579 27.728 90.2105 27.9606 90.5761 27.3557C90.8088 26.9635 90.9085 26.8704 91.3273 27.0233C91.8725 27.2227 92.4442 28.1268 92.7367 27.4089C93.0425 26.8571 93.2419 26.3918 93.4214 25.9796L91.7129 23.028L88.7015 17.8228Z" fill="#3697B2"/>
<path id="Vector_73" fill-rule="evenodd" clip-rule="evenodd" d="M94.7046 17.8228H88.7017L91.6998 23.0213L93.4083 25.973C93.867 24.916 94.1861 24.2246 95.8946 23.367C96.7255 22.9748 97.2042 22.9947 97.6695 23.0812L97.7028 23.0213L99.0124 20.7478C98.8263 20.0032 98.9393 19.1723 98.6069 17.8228H94.7046Z" fill="#2EB6B5"/>
<path id="Vector_74" fill-rule="evenodd" clip-rule="evenodd" d="M82.9045 31.916C82.8779 30.8191 82.7782 29.709 82.5123 28.5522L79.7003 33.4184L76.7021 38.617H82.7051H86.0157C85.557 36.3368 85.9293 34.5153 82.9045 31.916Z" fill="#424D9C"/>
<path id="Vector_75" fill-rule="evenodd" clip-rule="evenodd" d="M86.96 28.9313C87.2325 28.7518 87.6181 28.4194 87.9771 28.22H84.959C85.4576 28.9778 86.2354 29.4166 86.96 28.9313Z" fill="#4F5BA5"/>
<path id="Vector_76" fill-rule="evenodd" clip-rule="evenodd" d="M86.0091 38.6169H82.6985H76.6956L79.6937 43.8155L82.426 48.5421C82.5523 48.6086 82.6786 48.6751 82.8115 48.7349L82.8514 48.7548L85.7033 43.8155L88.1763 39.5343C87.6445 39.8534 87.1326 40.1991 86.6407 40.578C86.3083 39.8734 86.1288 39.2285 86.0091 38.6169Z" fill="#6B4092"/>
<path id="Vector_77" fill-rule="evenodd" clip-rule="evenodd" d="M87.9569 49.0142H83.4165C84.8857 49.6856 86.2285 50.1908 87.9569 49.0142Z" fill="#C11D7B"/>
<path id="Vector_78" fill-rule="evenodd" clip-rule="evenodd" d="M99.6571 26.7307C99.2915 26.3385 99.0522 26.2122 98.6999 26.2986C98.281 26.3983 98.6068 27.1695 98.753 28.2198H100.495C100.481 28.1733 100.462 28.1268 100.448 28.0802C100.269 27.5949 99.9829 27.083 99.6571 26.7307Z" fill="#3697B2"/>
<path id="Vector_79" fill-rule="evenodd" clip-rule="evenodd" d="M104.35 28.2198H106.318L106.551 27.9473L105.899 26.8171L104.35 28.2198Z" fill="#3697B2"/>
<path id="Vector_80" fill-rule="evenodd" clip-rule="evenodd" d="M99.0191 20.7478L97.7095 23.0213L97.6763 23.0812C98.3743 23.2141 99.059 23.5066 100.867 22.8685C99.6108 22.0308 99.1853 21.4325 99.0191 20.7478Z" fill="#3697B2"/>
<path id="Vector_81" fill-rule="evenodd" clip-rule="evenodd" d="M105.015 25.2949C104.836 25.3282 104.656 25.4345 104.51 25.614L101.924 28.22H103.879L105.527 26.1724L105.015 25.2949Z" fill="#3697B2"/>
<path id="Vector_82" fill-rule="evenodd" clip-rule="evenodd" d="M105.015 25.2951L105.521 26.1726L105.56 26.1194C105.833 25.5344 105.441 25.2153 105.015 25.2951Z" fill="#2EB6B5"/>
<path id="Vector_83" fill-rule="evenodd" clip-rule="evenodd" d="M106.923 25.8863L105.893 26.817L106.544 27.9472L107.515 26.8104L108.067 25.8531C108.007 25.4476 107.329 25.3811 106.923 25.8863Z" fill="#2EB6B5"/>
<path id="Vector_84" fill-rule="evenodd" clip-rule="evenodd" d="M97.1841 34.4357C95.2696 36.2971 92.4974 37.281 89.845 38.6172H94.6979H98.5802L99.9297 37.2743L97.7293 33.4585C97.5963 33.8574 97.4301 34.1964 97.1841 34.4357Z" fill="#424D9C"/>
<path id="Vector_85" fill-rule="evenodd" clip-rule="evenodd" d="M106.318 28.22H104.35L102.675 29.7357L103.892 28.22H101.937L100.701 29.4631C100.688 28.9446 100.668 28.7186 100.495 28.22H98.753C98.8527 28.9446 98.8727 29.8088 98.507 30.673C98.1348 31.5505 98.0151 32.6275 97.7292 33.4584L99.9297 37.2743L100.548 36.6627C101.239 35.9713 101.99 35.599 102.682 35.1935L103.706 33.4185L106.358 28.8183L104.437 30.427L106.318 28.22Z" fill="#4F5BA5"/>
<path id="Vector_86" fill-rule="evenodd" clip-rule="evenodd" d="M88.9676 39.0759C88.7017 39.2222 88.4358 39.3751 88.1699 39.5346L85.6969 43.8158L82.845 48.7551C83.0378 48.8415 83.2305 48.928 83.4167 49.0144H87.9571C88.2895 48.7884 88.6352 48.5025 88.9942 48.1435L92.2981 44.8595L91.6998 43.8158L88.9676 39.0759Z" fill="#913A8E"/>
<path id="Vector_87" fill-rule="evenodd" clip-rule="evenodd" d="M89.845 38.6169C89.5525 38.7632 89.2534 38.9161 88.9675 39.0756L91.6998 43.8155L92.2981 44.8592L98.5802 38.6169H94.6979H89.845Z" fill="#6B4092"/>
<path id="Vector_88" fill-rule="evenodd" clip-rule="evenodd" d="M108.073 25.8533L107.521 26.8106L107.907 26.3585C108.053 26.1591 108.1 25.9862 108.073 25.8533Z" fill="#3697B2"/>
<path id="Vector_89" fill-rule="evenodd" clip-rule="evenodd" d="M108.219 27.2692L107.076 28.2198H108.718L108.758 28.1799C109.669 27.3423 108.957 26.7307 108.219 27.2692Z" fill="#3697B2"/>
<path id="Vector_90" fill-rule="evenodd" clip-rule="evenodd" d="M106.192 30.5998L107.415 29.4497L106.83 28.4326L106.365 28.8248L103.712 33.4251L102.688 35.2001C103.041 34.994 103.373 34.7813 103.686 34.522C105.102 33.3187 106.298 31.8496 108.106 30.633L107.614 29.7888L106.192 30.5998Z" fill="#424D9C"/>
<path id="Vector_91" fill-rule="evenodd" clip-rule="evenodd" d="M108.013 29.5494L107.608 29.7821L108.1 30.6264C108.226 30.54 108.352 30.4602 108.479 30.3804C109.217 29.9217 108.598 29.2569 108.013 29.5494Z" fill="#4F5BA5"/>
<path id="Vector_92" fill-rule="evenodd" clip-rule="evenodd" d="M107.083 28.22L106.83 28.4327L107.415 29.4498L108.725 28.22H107.083Z" fill="#4F5BA5"/>
<path id="Vector_93" fill-rule="evenodd" clip-rule="evenodd" d="M81.369 17.8228C80.5114 18.6737 79.7868 19.1257 79.122 19.3185C78.8096 18.8 78.4306 18.2881 77.9985 17.8228H76.6956L79.6937 23.0213L82.5323 27.9407C82.745 27.8077 82.9312 27.6615 83.0974 27.5219L85.6967 23.028L88.6948 17.8294H82.6919H81.369V17.8228Z" fill="#2EB6B5"/>
<path id="Vector_94" fill-rule="evenodd" clip-rule="evenodd" d="M27.3557 17.8227H28.672L28.5124 17.5435L27.3557 17.8227Z" fill="#258E7A"/>
<path id="Vector_95" fill-rule="evenodd" clip-rule="evenodd" d="M28.6453 16.8655L29.2237 16.8721L29.9616 15.5891C29.5228 15.6622 29.0708 15.7221 28.6054 15.762C27.6082 15.8417 27.8941 16.8588 28.6453 16.8655Z" fill="#226442"/>
<path id="Vector_96" fill-rule="evenodd" clip-rule="evenodd" d="M28.672 17.8227L28.8914 17.4504L28.5125 17.5435L28.672 17.8227Z" fill="#226442"/>
<path id="Vector_97" fill-rule="evenodd" clip-rule="evenodd" d="M35.7318 14.0467C33.8771 14.4788 32.0888 15.2234 29.9615 15.589L29.2236 16.872L31.2047 16.892L28.8913 17.457L28.6719 17.8293H34.6748H40.6778L38.3644 13.8074C37.4403 13.8805 36.5828 13.8473 35.7318 14.0467Z" fill="#258E7A"/>
<path id="Vector_98" fill-rule="evenodd" clip-rule="evenodd" d="M38.3645 13.8075L40.6846 17.8228L43.6827 12.6242L43.8755 12.2852L40.0929 13.4884C39.4813 13.6812 38.9096 13.7676 38.3645 13.8075Z" fill="#226442"/>
<path id="Vector_99" fill-rule="evenodd" clip-rule="evenodd" d="M48.622 10.7827L43.8821 12.2918L43.6893 12.6308L40.6912 17.8294H41.8479C42.0207 17.7164 42.1936 17.6233 42.3797 17.5701C44.7663 16.8389 48.037 16.0943 51.3077 15.4162L49.6856 12.6242L48.622 10.7827Z" fill="#258E7A"/>
<path id="Vector_100" fill-rule="evenodd" clip-rule="evenodd" d="M48.6221 10.7826L49.6857 12.6241L51.2945 15.4095C52.3515 15.1901 53.4151 14.9774 54.4455 14.778L55.6887 12.6241L58.5738 7.63159C58.4076 7.67813 58.2281 7.73131 58.042 7.79114L48.6221 10.7826Z" fill="#226442"/>
<path id="Vector_101" fill-rule="evenodd" clip-rule="evenodd" d="M58.7731 7.57837C58.7066 7.59831 58.6401 7.61161 58.567 7.63155L55.6819 12.624L54.4387 14.7846C55.8746 14.5054 57.2574 14.2461 58.4939 14.0134C59.4512 15.4427 60.5082 16.7058 61.6449 17.8293H64.683L61.6848 12.6307L58.7731 7.57837Z" fill="#258E7A"/>
<path id="Vector_102" fill-rule="evenodd" clip-rule="evenodd" d="M64.55 14.6053L68.2595 8.18357L58.6401 4.36108L64.55 14.6053Z" fill="#226442"/>
<path id="Vector_103" fill-rule="evenodd" clip-rule="evenodd" d="M73.3586 15.4959C71.7964 13.9935 70.1477 12.6174 68.3994 11.4075L67.6947 12.6307L64.6965 17.8292H70.6995H76.7025L75.6986 16.0875C74.9607 15.7285 74.1763 15.5158 73.3586 15.4959Z" fill="#258E7A"/>
<path id="Vector_104" fill-rule="evenodd" clip-rule="evenodd" d="M76.6955 17.8228L77.1542 17.025C76.7022 16.6528 76.2102 16.3337 75.6851 16.0811L76.6955 17.8228Z" fill="#226442"/>
<path id="Vector_105" fill-rule="evenodd" clip-rule="evenodd" d="M77.1542 17.0249L76.6956 17.8226H77.9985C77.7393 17.5434 77.4534 17.2709 77.1542 17.0249Z" fill="#258E7A"/>
<path id="Vector_106" fill-rule="evenodd" clip-rule="evenodd" d="M85.5107 12.2983C84.4803 13.6013 83.5962 15.2766 82.1203 17.005C81.8611 17.3108 81.6085 17.5833 81.3691 17.8227H82.6987H88.7017L85.7035 12.6241L85.5107 12.2983Z" fill="#258E7A"/>
<path id="Vector_107" fill-rule="evenodd" clip-rule="evenodd" d="M93.1025 10.1978L91.6998 12.6242L88.7017 17.8228H94.7046H98.6069C98.3941 16.9519 97.9953 15.8683 97.2042 14.459C95.9744 12.2519 94.565 10.8891 93.1025 10.1978Z" fill="#258E7A"/>
<path id="Vector_108" fill-rule="evenodd" clip-rule="evenodd" d="M87.4717 10.5435C86.6872 10.9756 86.0756 11.5805 85.5039 12.3052L85.69 12.6309L88.6882 17.8295L91.6864 12.6309L93.089 10.2045C91.2277 9.31365 89.2666 9.54632 87.4717 10.5435Z" fill="#226442"/>
<path id="Vector_109" fill-rule="evenodd" clip-rule="evenodd" d="M11.4344 42.1604L14.8913 36.1641H4.84644L11.4344 42.1604Z" fill="#6B4092"/>
<path id="Vector_110" fill-rule="evenodd" clip-rule="evenodd" d="M21.0137 22.3833H25.4345L21.725 15.9548L21.0137 22.3833Z" fill="#3697B2"/>
<path id="Vector_111" fill-rule="evenodd" clip-rule="evenodd" d="M3.74268 3.74951L6.4018 8.35644L9.06756 12.9634L11.7267 8.35644L14.3858 3.74951H9.06756H3.74268Z" fill="#6B4092"/>
<path id="Vector_112" fill-rule="evenodd" clip-rule="evenodd" d="M26.4116 42.9182L29.0973 47.5783L31.7897 52.2384L34.482 47.5783L37.1678 42.9182H31.7897H26.4116Z" fill="#C11D7B"/>
<path id="Vector_113" fill-rule="evenodd" clip-rule="evenodd" d="M0.478516 18.3745L4.47384 25.2949L8.46917 32.2086L12.4578 25.2949L16.4532 18.3745H8.46917H0.478516Z" fill="#2EB6B5"/>
<path id="Vector_114" fill-rule="evenodd" clip-rule="evenodd" d="M15.5757 24.7432L19.5644 31.6569L23.5597 38.5772L27.555 31.6569L31.5503 24.7432H23.5597H15.5757Z" fill="#4F5BA5"/>
<path id="Vector_115" fill-rule="evenodd" clip-rule="evenodd" d="M33.3854 28.9844L30.6066 33.7907L27.8345 38.5971H33.3854H38.9363L36.1575 33.7907L33.3854 28.9844Z" fill="#913A8E"/>
<path id="Vector_116" fill-rule="evenodd" clip-rule="evenodd" d="M31.1915 0L28.5324 6.22899L25.8799 12.458H31.1915H36.4964L33.8439 6.22899L31.1915 0Z" fill="#3697B2"/>
<path id="Vector_117" fill-rule="evenodd" clip-rule="evenodd" d="M8.84817 75.0735L7.45213 77.4866L6.06274 79.8931H8.84817H11.6336L10.2376 77.4866L8.84817 75.0735Z" fill="#CFD952"/>
<path id="Vector_118" fill-rule="evenodd" clip-rule="evenodd" d="M0 75.3528L1.25643 77.5333L2.51287 79.7137L3.77595 77.5333L5.03238 75.3528H2.51287H0Z" fill="#E97924"/>
<path id="Vector_119" fill-rule="evenodd" clip-rule="evenodd" d="M20.3091 53.0229L23.3538 58.3013L26.4051 63.5863L29.4565 58.3013L32.5011 53.0229H26.4051H20.3091Z" fill="#E65427"/>
<path id="Vector_120" fill-rule="evenodd" clip-rule="evenodd" d="M11.2082 49.207L9.12745 52.8101L7.04004 56.4199H11.2082H15.3697L13.289 52.8101L11.2082 49.207Z" fill="#E97924"/>
<path id="Vector_121" fill-rule="evenodd" clip-rule="evenodd" d="M18.6603 55.5623L15.4295 61.1531L12.2053 66.7439H18.6603H25.1153L21.8912 61.1531L18.6603 55.5623Z" fill="#E74426"/>
<path id="Vector_122" fill-rule="evenodd" clip-rule="evenodd" d="M19.0459 6.17578L17.1314 9.48639L15.2168 12.797H19.0459H22.8684L20.9538 9.48639L19.0459 6.17578Z" fill="#258E7A"/>
<path id="Vector_123" fill-rule="evenodd" clip-rule="evenodd" d="M76.1572 12.5645L77.5732 15.0108L78.9825 17.4572L80.3919 15.0108L81.8079 12.5645H78.9825H76.1572Z" fill="#226442"/>
<path id="Vector_124" fill-rule="evenodd" clip-rule="evenodd" d="M52.604 23.0944L60.2423 26.0394L54.5917 16.2605L52.604 23.0944Z" fill="#4F5BA5"/>
<path id="Vector_125" fill-rule="evenodd" clip-rule="evenodd" d="M41.582 24.1048H50.3039L46.7873 18.0088L41.582 24.1048Z" fill="#913A8E"/>
<path id="Vector_126" fill-rule="evenodd" clip-rule="evenodd" d="M71.1648 10.8227H80.5448L77.8192 6.10278L71.1648 10.8227Z" fill="#258E7A"/>
<path id="Vector_127" fill-rule="evenodd" clip-rule="evenodd" d="M10.7626 68.6917L9.71894 70.4999L8.68188 72.3014H10.7626H12.8434L11.8064 70.4999L10.7626 68.6917Z" fill="#F8AC2D"/>
<path id="Vector_128" fill-rule="evenodd" clip-rule="evenodd" d="M2.28687 62.4893L4.36763 66.099L6.44839 69.7021L8.52915 66.099L10.6099 62.4893H6.44839H2.28687Z" fill="#F8AC2D"/>
<path id="Vector_129" fill-rule="evenodd" clip-rule="evenodd" d="M44.6134 40.4652L53.0694 25.8201L40.7112 27.0499L44.6134 40.4652Z" fill="#C11D7B"/>
<path id="Vector_130" fill-rule="evenodd" clip-rule="evenodd" d="M14.3193 48.9477L26.6842 50.1842L18.2216 35.5325L14.3193 48.9477Z" fill="#913A8E"/>
<path id="Vector_131" fill-rule="evenodd" clip-rule="evenodd" d="M38.145 7.59852L45.1518 10.2975L39.9665 1.323L38.145 7.59852Z" fill="#258E7A"/>
<path id="Vector_132" fill-rule="evenodd" clip-rule="evenodd" d="M46.3484 7.36562H57.2707L51.1082 2.39307L46.3484 7.36562Z" fill="#226442"/>
</g>
</svg>
