<svg width="28" height="28" viewBox="0 0 28 28" fill="none" xmlns="http://www.w3.org/2000/svg">
    <path opacity="0.15"
        d="M1.25004 13.2917C1.24517 15.1615 1.68202 17.006 2.52504 18.675C3.5246 20.675 5.06123 22.3572 6.96282 23.5332C8.86441 24.7091 11.0559 25.3325 13.2917 25.3333C15.1615 25.3383 17.006 24.9014 18.675 24.0583L26.75 26.75L24.0583 18.675C24.9014 17.006 25.3383 15.1615 25.3333 13.2917C25.3325 11.0559 24.7091 8.86441 23.5332 6.96282C22.3572 5.06123 20.675 3.5246 18.675 2.52504C17.006 1.68202 15.1615 1.24517 13.2917 1.25004H12.5833C9.63054 1.41294 6.84157 2.65928 4.75043 4.75043C2.65928 6.84157 1.41294 9.63054 1.25004 12.5833V13.2917Z"
        fill="#32CD32" />
    <path d="M8.33337 10.4583H18.25" stroke="#333333" stroke-width="2" stroke-linecap="round"
        stroke-linejoin="round" />
    <path d="M8.33337 16.125H15.4167" stroke="#333333" stroke-width="2" stroke-linecap="round"
        stroke-linejoin="round" />
    <path d="M18.675 24.0583L26.75 26.75L24.0584 18.675" stroke="#333333" stroke-width="2"
        stroke-linecap="round" stroke-linejoin="round" />
    <path
        d="M18.675 24.0583C18.675 24.0583 16.9533 25.3333 13.2917 25.3333C6.64124 25.3333 1.25 19.9421 1.25 13.2917C1.25 6.64124 6.64124 1.25 13.2917 1.25C19.9421 1.25 25.3333 6.64124 25.3333 13.2917C25.3333 16.8333 24.0583 18.675 24.0583 18.675"
        stroke="#333333" stroke-width="2" stroke-linecap="round" stroke-linejoin="round" />
</svg>
