<svg width="34" height="34" viewBox="0 0 34 34" fill="none" xmlns="http://www.w3.org/2000/svg">
<g id="heart">
<path id="Vector" d="M28.9283 6.48833C28.2176 5.77515 27.3731 5.20927 26.4432 4.82316C25.5134 4.43705 24.5164 4.2383 23.5096 4.2383C22.5027 4.2383 21.5058 4.43705 20.5759 4.82316C19.646 5.20927 18.8015 5.77515 18.0908 6.48833L17 7.59333L15.9092 6.48833C15.1985 5.77515 14.3539 5.20927 13.4241 4.82316C12.4942 4.43705 11.4973 4.2383 10.4904 4.2383C9.48357 4.2383 8.48663 4.43705 7.55675 4.82316C6.62688 5.20927 5.78238 5.77515 5.07167 6.48833C2.06833 9.49166 1.88417 14.5633 5.66667 18.4167L17 29.75L28.3333 18.4167C32.1158 14.5633 31.9317 9.49166 28.9283 6.48833Z" fill="#251844" stroke="#251844" stroke-width="2" stroke-linecap="round" stroke-linejoin="round"/>
</g>
</svg>
