<svg width="123" height="123" viewBox="0 0 123 123" fill="none" xmlns="http://www.w3.org/2000/svg">
<g id="Group 56">
<g id="Ellipse 2" filter="url(#filter0_d_197_494)">
<circle cx="61.5" cy="57.5" r="11.5" fill="white"/>
</g>
<g id="Group">
<g id="Group_2">
<path id="Vector" d="M61.6704 54.7768C61.2357 54.7768 60.8239 54.9522 60.5189 55.2648C59.9088 55.8978 59.947 56.9044 60.5646 57.5221L61.5179 58.4753C61.6017 58.5592 61.6017 58.6964 61.5179 58.7727C61.434 58.8566 61.2967 58.8566 61.2205 58.7727L60.2444 57.8042C59.8021 57.3619 59.5886 56.7519 59.6648 56.1189C59.7106 55.7605 59.8478 55.425 60.069 55.1352C60.4655 54.6319 61.0451 54.3498 61.6704 54.3498C62.2118 54.3498 62.7151 54.5633 63.104 54.9446L66.0094 57.8195C66.2001 56.8967 65.9332 55.9054 65.224 55.1962L63.8742 53.8465C62.7456 52.7178 60.9154 52.7178 59.7868 53.8465L57.8575 55.7758L57.8499 55.7834C57.4076 56.2257 57.4228 56.9501 57.8651 57.4L60.3054 59.8326C60.6104 60.1377 61.0069 60.2978 61.434 60.2978C61.861 60.2978 62.2652 60.1301 62.5626 59.8326C62.8676 59.5276 63.0278 59.1311 63.0278 58.704C63.0278 58.277 62.86 57.8728 62.5626 57.5754L61.5865 56.5993C61.5026 56.5155 61.5026 56.3782 61.5865 56.3019C61.6704 56.2181 61.8076 56.2181 61.8839 56.3019L62.86 57.278C63.2413 57.6593 63.4548 58.1702 63.4548 58.7117C63.4548 59.2531 63.2413 59.7564 62.86 60.1453C62.4787 60.5266 61.9678 60.7401 61.4264 60.7401C60.8849 60.7401 60.3816 60.5266 59.9927 60.1453L57.0644 57.2247C56.8662 58.1474 57.1254 59.154 57.8423 59.8708L59.192 61.2205C60.3206 62.3491 62.1508 62.3491 63.2794 61.2205L65.2087 59.2912C65.2163 59.2836 65.224 59.276 65.2316 59.2683C65.6739 58.8184 65.6586 58.094 65.2087 57.6517L62.8066 55.2496C62.5016 54.9446 62.0974 54.7768 61.6704 54.7768Z" fill="url(#paint0_linear_197_494)"/>
</g>
</g>
</g>
<defs>
<filter id="filter0_d_197_494" x="0" y="0" width="123" height="123" filterUnits="userSpaceOnUse" color-interpolation-filters="sRGB">
<feFlood flood-opacity="0" result="BackgroundImageFix"/>
<feColorMatrix in="SourceAlpha" type="matrix" values="0 0 0 0 0 0 0 0 0 0 0 0 0 0 0 0 0 0 127 0" result="hardAlpha"/>
<feOffset dy="4"/>
<feGaussianBlur stdDeviation="25"/>
<feComposite in2="hardAlpha" operator="out"/>
<feColorMatrix type="matrix" values="0 0 0 0 1 0 0 0 0 0.403922 0 0 0 0 0.419608 0 0 0 0.4 0"/>
<feBlend mode="normal" in2="BackgroundImageFix" result="effect1_dropShadow_197_494"/>
<feBlend mode="normal" in="SourceGraphic" in2="effect1_dropShadow_197_494" result="shape"/>
</filter>
<linearGradient id="paint0_linear_197_494" x1="58.5064" y1="54.5064" x2="63.8862" y2="60.1014" gradientUnits="userSpaceOnUse">
<stop stop-color="#456FFF"/>
<stop offset="0.479167" stop-color="#5BE1FF"/>
<stop offset="1" stop-color="#A026FE"/>
</linearGradient>
</defs>
</svg>
