<svg width="57" height="57" viewBox="0 0 57 57" fill="none" xmlns="http://www.w3.org/2000/svg">
<g id="9040416_gender_male_icon 1">
<path id="Vector" fill-rule="evenodd" clip-rule="evenodd" d="M33.8437 7.125C33.3713 7.125 32.9182 6.93733 32.5842 6.60328C32.2501 6.26923 32.0625 5.81617 32.0625 5.34375C32.0625 4.87133 32.2501 4.41827 32.5842 4.08422C32.9182 3.75017 33.3713 3.5625 33.8437 3.5625H51.6562C52.1286 3.5625 52.5817 3.75017 52.9158 4.08422C53.2498 4.41827 53.4375 4.87133 53.4375 5.34375V23.1562C53.4375 23.6287 53.2498 24.0817 52.9158 24.4158C52.5817 24.7498 52.1286 24.9375 51.6562 24.9375C51.1838 24.9375 50.7307 24.7498 50.3967 24.4158C50.0626 24.0817 49.875 23.6287 49.875 23.1562V9.64369L35.1654 24.3532C38.0575 27.8915 39.4791 32.4059 39.1361 36.9628C38.7932 41.5198 36.712 45.7706 33.3229 48.8361C29.9339 51.9017 25.4963 53.5475 20.9279 53.433C16.3595 53.3186 12.0099 51.4528 8.77851 48.2215C5.54716 44.9901 3.68134 40.6404 3.56693 36.0721C3.45252 31.5037 5.09828 27.0661 8.16383 23.677C11.2294 20.288 15.4802 18.2068 20.0371 17.8639C24.5941 17.5209 29.1085 18.9425 32.6467 21.8346L47.3563 7.125H33.8437ZM21.375 21.375C17.5956 21.375 13.9711 22.8763 11.2987 25.5487C8.62631 28.2211 7.12498 31.8457 7.12498 35.625C7.12498 39.4043 8.62631 43.0289 11.2987 45.7013C13.9711 48.3737 17.5956 49.875 21.375 49.875C25.1543 49.875 28.7789 48.3737 31.4512 45.7013C34.1236 43.0289 35.625 39.4043 35.625 35.625C35.625 31.8457 34.1236 28.2211 31.4512 25.5487C28.7789 22.8763 25.1543 21.375 21.375 21.375Z" fill="white"/>
</g>
</svg>
