<svg width="34" height="34" viewBox="0 0 34 34" fill="none" xmlns="http://www.w3.org/2000/svg">
<g id="3289577_fast_run_running_icon 1">
<g id="Group">
<path id="Vector" d="M22.7375 7.43749C24.3023 7.43749 25.5708 6.16897 25.5708 4.60416C25.5708 3.03935 24.3023 1.77083 22.7375 1.77083C21.1727 1.77083 19.9042 3.03935 19.9042 4.60416C19.9042 6.16897 21.1727 7.43749 22.7375 7.43749Z" fill="#251844"/>
<path id="Vector_2" d="M29.6084 8.49999C28.9 8.14582 28.05 8.39374 27.6959 9.10207L26.4563 11.4396L21.0021 8.00416C20.7896 7.86249 20.5417 7.79166 20.2584 7.79166H14.2375C13.7063 7.79166 13.2459 8.07499 12.998 8.53541L10.6959 12.7854C10.3063 13.4583 10.5896 14.3437 11.2625 14.6979C11.475 14.8042 11.723 14.875 11.9355 14.875C12.4313 14.875 12.9271 14.5917 13.175 14.1312L15.0875 10.625H17.1771L10.9084 22.3125H5.02922C4.25005 22.3125 3.61255 22.95 3.61255 23.7292C3.61255 24.5083 4.25005 25.1458 5.02922 25.1458H11.7584C12.2896 25.1458 12.75 24.8625 12.998 24.4021L15.4771 19.8333L19.55 23.6229L19.2313 30.7417C19.1605 31.5208 19.7625 32.1937 20.5417 32.2292C20.5771 32.2292 20.5771 32.2292 20.6125 32.2292C21.3563 32.2292 21.9938 31.6271 22.0292 30.8833L22.3834 23.0917C22.4188 22.6667 22.2417 22.2771 21.923 21.9937L18.4875 18.8062L22.1 12.0771L26.2084 14.6625C26.5271 14.875 26.9521 14.9458 27.3417 14.8396C27.7313 14.7333 28.05 14.4854 28.2271 14.1312L30.175 10.4125C30.5646 9.73957 30.3167 8.88957 29.6084 8.49999Z" fill="#251844"/>
</g>
</g>
</svg>
