<svg width="42" height="42" viewBox="0 0 42 42" fill="none" xmlns="http://www.w3.org/2000/svg">
<g id="8893873_running_actor_movie_film_making_icon 1">
<path id="Vector" d="M17.29 16.779C17.472 16.443 17.346 16.016 17.01 15.827C16.667 15.645 16.247 15.764 16.058 16.107L5.76799 35.021C5.45999 35.581 5.39699 36.232 5.58599 36.841C5.77499 37.45 6.19499 37.947 6.76199 38.241C7.09799 38.416 7.46899 38.5 7.82599 38.5C8.63099 38.5 9.40799 38.087 9.84899 37.359L15.757 27.531C16.975 28.147 18.228 28.861 18.9 29.33L14.539 32.137C14.042 32.452 13.713 32.949 13.601 33.523C13.489 34.097 13.615 34.678 13.958 35.161C14.546 35.994 15.645 36.288 16.576 35.868L24.815 32.13C25.557 31.794 26.075 31.143 26.25 30.352C26.425 29.561 26.215 28.749 25.676 28.14C24.395 26.677 22.638 25.277 20.951 24.367L24.213 18.291C32.039 19.754 35.28 14.777 36.323 12.537C36.729 11.662 36.449 10.619 35.658 10.059C34.776 9.43599 33.572 9.61099 32.914 10.465C31.997 11.648 30.023 13.608 27.167 13.433C25.207 13.314 24.01 12.593 22.743 11.83C21.161 10.878 19.523 9.89799 16.492 10.003C12.432 10.15 9.26799 13.23 7.74899 15.057C7.41299 15.456 7.25899 15.988 7.32199 16.506C7.38499 17.031 7.67199 17.507 8.09199 17.815C8.82699 18.347 9.84199 18.284 10.507 17.668C11.655 16.604 14.644 14.224 17.521 15.141C17.892 15.26 18.284 15.057 18.403 14.686C18.522 14.315 18.319 13.923 17.948 13.804C14.497 12.705 11.207 15.106 9.55499 16.639C9.37999 16.807 9.10699 16.821 8.91099 16.681C8.79199 16.597 8.72199 16.471 8.70799 16.331C8.69399 16.191 8.72899 16.058 8.81999 15.953C10.192 14.308 13.02 11.529 16.541 11.403C19.166 11.319 20.552 12.145 22.022 13.027C23.38 13.839 24.78 14.686 27.083 14.826C30.583 15.043 32.935 12.719 34.027 11.319C34.223 11.067 34.587 11.011 34.853 11.2C35.091 11.368 35.182 11.683 35.056 11.942C34.132 13.93 31.199 18.389 23.989 16.814C23.681 16.751 23.373 16.891 23.226 17.164L19.376 24.325C19.285 24.493 19.271 24.696 19.327 24.878C19.39 25.06 19.523 25.207 19.698 25.291C21.406 26.089 23.296 27.531 24.619 29.05C24.857 29.323 24.955 29.687 24.878 30.044C24.801 30.401 24.563 30.695 24.234 30.842L15.995 34.58C15.673 34.727 15.302 34.622 15.099 34.335C14.98 34.174 14.938 33.971 14.98 33.775C15.015 33.579 15.134 33.411 15.302 33.299L20.377 30.023C20.622 29.869 20.741 29.582 20.685 29.295C20.629 29.008 20.475 28.252 15.799 25.97C15.47 25.809 15.078 25.928 14.889 26.236L8.64499 36.617C8.38599 37.044 7.83999 37.205 7.39199 36.974C7.16099 36.855 6.99299 36.652 6.91599 36.407C6.83899 36.162 6.86699 35.896 6.99299 35.672L17.29 16.779Z" fill="#FF676B"/>
<path id="Vector_2" d="M25.767 3.5C23.492 3.5 21.644 5.348 21.644 7.623C21.644 9.898 23.492 11.746 25.767 11.746C28.042 11.746 29.89 9.898 29.89 7.623C29.89 5.348 28.035 3.5 25.767 3.5ZM25.767 10.339C24.269 10.339 23.044 9.121 23.044 7.616C23.044 6.111 24.262 4.9 25.767 4.9C27.272 4.9 28.49 6.118 28.49 7.623C28.49 9.128 27.265 10.339 25.767 10.339Z" fill="#FF676B"/>
</g>
</svg>
