<svg width="30" height="32" viewBox="0 0 30 32" fill="none" xmlns="http://www.w3.org/2000/svg">
    <g clip-path="url(#clip0_77_466)">
        <path fill-rule="evenodd" clip-rule="evenodd"
            d="M20.012 7.23801C20.4697 7.24079 20.9234 7.15272 21.3468 6.97888C21.7702 6.80504 22.1549 6.5489 22.4786 6.22531C22.8023 5.90171 23.0585 5.51709 23.2325 5.09373C23.4064 4.67037 23.4946 4.2167 23.492 3.75901C23.4765 2.84667 23.1032 1.97692 22.4526 1.3372C21.8019 0.697476 20.926 0.338989 20.0135 0.338989C19.101 0.338989 18.2251 0.697476 17.5744 1.3372C16.9237 1.97692 16.5505 2.84667 16.535 3.75901C16.5322 4.21649 16.6202 4.66997 16.7939 5.09319C16.9677 5.51641 17.2236 5.90095 17.547 6.22453C17.8704 6.54812 18.2548 6.80432 18.678 6.97828C19.1011 7.15225 19.5545 7.24053 20.012 7.23801ZM26.312 7.76401C24.276 10.586 21.585 10.914 18.696 9.20801C18.295 8.94283 17.8786 8.70174 17.449 8.48601C12.788 5.72901 8.12799 6.77901 5.04199 11.177C3.72999 13.015 6.81499 14.787 8.06299 12.95C9.70299 10.65 11.738 9.99501 13.971 10.718C12.855 12.753 11.804 14.718 10.425 17.479C8.97999 20.302 5.89599 22.534 2.87499 20.827C2.67244 20.692 2.44501 20.5988 2.206 20.5528C1.96699 20.5068 1.7212 20.509 1.48303 20.5591C1.24486 20.6093 1.01908 20.7064 0.818925 20.8449C0.618767 20.9834 0.448245 21.1604 0.317343 21.3656C0.186441 21.5708 0.0977889 21.8001 0.0565759 22.04C0.0153628 22.2799 0.0224172 22.5255 0.0773259 22.7627C0.132235 22.9998 0.233895 23.2236 0.376355 23.4209C0.518814 23.6183 0.699212 23.7852 0.906987 23.912C2.74878 24.9621 4.90472 25.3209 6.98735 24.9239C9.06997 24.5269 10.9427 23.4001 12.269 21.746C12.335 21.746 12.469 21.811 12.531 21.811C14.4885 22.625 16.3228 23.7081 17.981 25.029C18.768 25.684 20.146 29.029 20.934 30.739C21.985 32.774 25.134 31.329 24.151 29.229C23.231 27.329 21.656 23.518 20.475 22.534C19.0511 21.4352 17.5598 20.4266 16.01 19.514C17.127 17.414 18.243 15.379 19.424 13.344C23.166 14.459 26.777 13.144 29.337 9.53601C30.649 7.69901 27.631 5.92601 26.318 7.76401H26.312Z"
            fill="#32CD32" />
    </g>
    <defs>
        <clipPath id="clip0_77_466">
            <rect width="29.658" height="31.438" fill="white" transform="translate(0 0.281006)" />
        </clipPath>
    </defs>
</svg>
