<svg width="28" height="30" viewBox="0 0 28 30" fill="none" xmlns="http://www.w3.org/2000/svg">
    <path fill-rule="evenodd" clip-rule="evenodd"
        d="M18.6638 6.82829C19.0907 6.83089 19.5138 6.74874 19.9087 6.58662C20.3036 6.42449 20.6624 6.18561 20.9643 5.88381C21.2661 5.58201 21.5051 5.2233 21.6674 4.82847C21.8296 4.43363 21.9119 4.01052 21.9094 3.58366C21.895 2.73278 21.5468 1.92163 20.94 1.32501C20.3332 0.72838 19.5162 0.394043 18.6652 0.394043C17.8142 0.394043 16.9973 0.72838 16.3905 1.32501C15.7836 1.92163 15.4355 2.73278 15.4211 3.58366C15.4185 4.01032 15.5006 4.43326 15.6626 4.82796C15.8246 5.22267 16.0633 5.58131 16.365 5.88309C16.6666 6.18488 17.0251 6.42381 17.4197 6.58606C17.8143 6.74831 18.2372 6.83064 18.6638 6.82829ZM24.5394 7.31885C22.6406 9.95074 20.1309 10.2566 17.4365 8.66558C17.0625 8.41827 16.6742 8.19342 16.2735 7.99222C11.9265 5.42095 7.58044 6.40021 4.70234 10.5019C3.47872 12.2161 6.35589 13.8687 7.51982 12.1555C9.04933 10.0104 10.9472 9.39956 13.0298 10.0739C11.989 11.9718 11.0088 13.8044 9.72269 16.3794C8.37504 19.0122 5.4988 21.0938 2.68132 19.5018C2.49242 19.3759 2.28031 19.289 2.0574 19.2461C1.83449 19.2032 1.60527 19.2052 1.38314 19.252C1.16101 19.2988 0.950447 19.3894 0.763773 19.5185C0.577099 19.6477 0.418065 19.8128 0.295982 20.0042C0.173898 20.1956 0.0912182 20.4094 0.0527815 20.6331C0.0143449 20.8568 0.020924 21.0859 0.0721337 21.3071C0.123343 21.5282 0.218155 21.737 0.351017 21.921C0.48388 22.1051 0.652125 22.2608 0.845902 22.379C2.56362 23.3584 4.57432 23.693 6.51664 23.3227C8.45896 22.9524 10.2055 21.9016 11.4425 20.3589C11.504 20.3589 11.629 20.4195 11.6868 20.4195C13.5124 21.1787 15.2232 22.1888 16.7697 23.4207C17.5036 24.0316 18.7888 27.1513 19.5237 28.7461C20.5039 30.644 23.4408 29.2963 22.524 27.3378C21.666 25.5658 20.1971 22.0115 19.0956 21.0938C17.7677 20.0691 16.3769 19.1284 14.9314 18.2773C15.9732 16.3188 17.014 14.4208 18.1154 12.5229C21.6054 13.5628 24.9731 12.3364 27.3606 8.97148C28.5842 7.25823 25.7696 5.60468 24.545 7.31885H24.5394Z"
        fill="#007BFF" />
</svg>
