<svg width="34" height="34" viewBox="0 0 34 34" fill="none" xmlns="http://www.w3.org/2000/svg">
<g id="star">
<path id="Vector" d="M17 4L18.236 6.30389L21 6.6756L19 8.46793L19.472 11L17 9.80389L14.528 11L15 8.46793L13 6.6756L15.764 6.30389L17 4Z" fill="#251844" stroke="#251844" stroke-width="2" stroke-linecap="round" stroke-linejoin="round"/>
<path id="Rectangle 15" d="M3 20C3 19.4477 3.51167 19 4.14286 19H9.85714C10.4883 19 11 19.4477 11 20V29C11 29.5523 10.4883 30 9.85714 30H4.14286C3.51167 30 3 29.5523 3 29V20Z" fill="#251844"/>
<path id="Rectangle 16" d="M13 15C13 14.4477 13.5117 14 14.1429 14H19.8571C20.4883 14 21 14.4477 21 15V29C21 29.5523 20.4883 30 19.8571 30H14.1429C13.5117 30 13 29.5523 13 29V15Z" fill="#251844"/>
<path id="Rectangle 17" d="M23 22C23 21.4477 23.5117 21 24.1429 21H29.8571C30.4883 21 31 21.4477 31 22V29C31 29.5523 30.4883 30 29.8571 30H24.1429C23.5117 30 23 29.5523 23 29V22Z" fill="#251844"/>
</g>
</svg>
