<svg xmlns="http://www.w3.org/2000/svg" xmlns:xlink="http://www.w3.org/1999/xlink" version="1.1" width="256" height="256" viewBox="0 0 256 256" xml:space="preserve">

<defs>
</defs>
<g style="stroke: none; stroke-width: 0.5; stroke-dasharray: none; stroke-linecap: butt; stroke-linejoin: miter; stroke-miterlimit: 10; fill: #001A72; fill-rule: nonzero; opacity: 1;" transform="translate(1.4065934065934016 1.4065934065934016) scale(2.81 2.81)" >
	<path d="M 45 68.498 c -12.957 0 -23.498 -10.541 -23.498 -23.498 S 32.043 21.502 45 21.502 S 68.498 32.043 68.498 45 S 57.957 68.498 45 68.498 z M 45 27.502 c -9.648 0 -17.498 7.85 -17.498 17.498 S 35.352 62.498 45 62.498 S 62.498 54.648 62.498 45 S 54.648 27.502 45 27.502 z" style="stroke: #001A72; stroke-width: 0.1; stroke-dasharray: none; stroke-linecap: butt; stroke-linejoin: miter; stroke-miterlimit: 10; fill: #001A72; fill-rule: nonzero; opacity: 1;" transform=" matrix(1 0 0 1 0 0) " stroke-linecap="round" />
	<path d="M 45 48 c -0.768 0 -1.536 -0.293 -2.121 -0.879 c -1.172 -1.171 -1.172 -3.071 0 -4.242 l 21.305 -21.305 c 1.172 -1.172 3.07 -1.172 4.242 0 c 1.172 1.171 1.172 3.071 0 4.242 L 47.121 47.121 C 46.535 47.707 45.768 48 45 48 z" style="stroke: #001A72; stroke-width: 1; stroke-dasharray: none; stroke-linecap: butt; stroke-linejoin: miter; stroke-miterlimit: 10; fill: #001A72; fill-rule: nonzero; opacity: 1;" transform=" matrix(1 0 0 1 0 0) " stroke-linecap="round" />
	<polygon points="73.44,4.38 65.05,12.78 66.31,23.7 77.22,24.95 85.62,16.56 74.7,15.3 " style="stroke: #001A72; stroke-width: 1; stroke-dasharray: none; stroke-linecap: butt; stroke-linejoin: miter; stroke-miterlimit: 10; fill: #001A72; fill-rule: nonzero; opacity: 1;" transform="  matrix(1 0 0 1 0 0) "/>
	<path d="M 77.223 27.95 c -0.113 0 -0.229 -0.006 -0.343 -0.02 l -10.918 -1.255 c -1.386 -0.159 -2.479 -1.252 -2.638 -2.638 L 62.069 13.12 c -0.104 -0.91 0.212 -1.817 0.859 -2.464 l 8.394 -8.394 c 0.814 -0.815 2.025 -1.091 3.108 -0.711 c 1.087 0.379 1.861 1.346 1.993 2.49 l 0.982 8.552 l 8.553 0.983 c 1.144 0.131 2.111 0.906 2.49 1.993 s 0.103 2.295 -0.712 3.109 l -8.394 8.394 C 78.778 27.637 78.014 27.95 77.223 27.95 z M 69.013 20.987 l 7.113 0.817 l 2.977 -2.977 l -4.747 -0.545 c -1.386 -0.159 -2.479 -1.252 -2.638 -2.638 l -0.546 -4.747 l -2.977 2.977 L 69.013 20.987 z" style="stroke: #001A72; stroke-width: 1; stroke-dasharray: none; stroke-linecap: butt; stroke-linejoin: miter; stroke-miterlimit: 10; fill: #001A72; fill-rule: nonzero; opacity: 1;" transform=" matrix(1 0 0 1 0 0) " stroke-linecap="round" />
	<path d="M 45 90 C 20.187 90 0 69.813 0 45 C 0 20.187 20.187 0 45 0 c 4.845 0 9.612 0.766 14.17 2.277 c 1.572 0.521 2.425 2.219 1.903 3.792 c -0.521 1.572 -2.215 2.428 -3.792 1.904 C 53.334 6.664 49.202 6 45 6 C 23.495 6 6 23.495 6 45 s 17.495 39 39 39 s 39 -17.495 39 -39 c 0 -4.399 -0.727 -8.716 -2.159 -12.832 c -0.545 -1.564 0.282 -3.275 1.847 -3.819 c 1.563 -0.544 3.275 0.282 3.819 1.847 C 89.161 34.947 90 39.928 90 45 C 90 69.813 69.813 90 45 90 z" style="stroke: #001A72; stroke-width: 1; stroke-dasharray: none; stroke-linecap: butt; stroke-linejoin: miter; stroke-miterlimit: 10; fill: #001A72; fill-rule: nonzero; opacity: 1;" transform=" matrix(1 0 0 1 0 0) " stroke-linecap="round" />
</g>
</svg>