<svg width="34" height="34" viewBox="0 0 34 34" fill="none" xmlns="http://www.w3.org/2000/svg">
<g id="7295022_group_team_people_avatar_profile_icon 1">
<g clip-path="url(#clip0_172_425)">
<g id="Layer 2">
<g id="Layer 1">
<path id="Vector" d="M29.9636 20.314H27.2396C27.5225 21.0899 27.6669 21.9094 27.6664 22.7353V32.9895C27.6662 33.3351 27.6068 33.678 27.4908 34.0035H31.9733C32.776 34.0035 33.5458 33.6846 34.1134 33.117C34.681 32.5494 34.9999 31.7795 34.9999 30.9768V25.3745C34.9975 24.0373 34.4669 22.7552 33.5237 21.8073C32.5804 20.8595 31.3008 20.3228 29.9636 20.314Z" fill="#251844"/>
<path id="Vector_2" d="M20.5811 17.6748H14.3856C13.0431 17.6764 11.7561 18.2104 10.8069 19.1596C9.85762 20.1089 9.32362 21.3959 9.32202 22.7383V32.9895C9.32202 33.2585 9.42885 33.5164 9.61899 33.7065C9.80914 33.8966 10.067 34.0035 10.3359 34.0035H24.6368C24.9057 34.0035 25.1636 33.8966 25.3537 33.7065C25.5439 33.5164 25.6507 33.2585 25.6507 32.9895V22.7383C25.6491 21.3948 25.1143 20.1069 24.1637 19.1575C23.2132 18.2081 21.9246 17.6748 20.5811 17.6748Z" fill="#251844"/>
<path id="Vector_3" d="M17.4849 4.25165C16.2814 4.25225 15.105 4.60965 14.1045 5.27868C13.1041 5.94771 12.3244 6.89833 11.8641 8.01038C11.4038 9.12243 11.2835 10.346 11.5185 11.5264C11.7534 12.7068 12.333 13.791 13.1841 14.6421C14.0351 15.4931 15.1194 16.0727 16.2998 16.3077C17.4802 16.5426 18.7037 16.4223 19.8158 15.962C20.9278 15.5017 21.8784 14.7221 22.5475 13.7216C23.2165 12.7211 23.5739 11.5448 23.5745 10.3412C23.5729 8.72667 22.9308 7.17869 21.7891 6.03702C20.6475 4.89534 19.0995 4.25325 17.4849 4.25165V4.25165Z" fill="#251844"/>
<path id="Vector_4" d="M28.178 9.92657C27.2801 9.92657 26.4023 10.1928 25.6558 10.6917C24.9092 11.1906 24.3273 11.8996 23.9836 12.7292C23.64 13.5587 23.5501 14.4716 23.7253 15.3522C23.9005 16.2329 24.3329 17.0418 24.9678 17.6768C25.6027 18.3117 26.4116 18.7441 27.2923 18.9192C28.173 19.0944 29.0858 19.0045 29.9154 18.6609C30.7449 18.3173 31.454 17.7354 31.9528 16.9888C32.4517 16.2422 32.718 15.3644 32.718 14.4665C32.7132 13.2639 32.2333 12.112 31.383 11.2616C30.5326 10.4112 29.3806 9.93136 28.178 9.92657Z" fill="#251844"/>
<path id="Vector_5" d="M5.06356 20.314H7.78753C7.50466 21.0899 7.36021 21.9094 7.36077 22.7353V32.9895C7.36099 33.3351 7.42036 33.678 7.53632 34.0035H3.02663C2.22392 34.0035 1.45408 33.6846 0.886481 33.117C0.318877 32.5494 0 31.7795 0 30.9768L0 25.3745C0.00240249 24.0326 0.536751 22.7464 1.48592 21.7978C2.43509 20.8492 3.72164 20.3156 5.06356 20.314Z" fill="#251844"/>
<path id="Vector_6" d="M6.8433 9.92657C7.74121 9.92657 8.61897 10.1928 9.36556 10.6917C10.1121 11.1906 10.694 11.8996 11.0377 12.7292C11.3813 13.5587 11.4712 14.4716 11.296 15.3522C11.1208 16.2329 10.6885 17.0418 10.0535 17.6768C9.4186 18.3117 8.60966 18.7441 7.729 18.9192C6.84833 19.0944 5.9355 19.0045 5.10593 18.6609C4.27636 18.3173 3.56732 17.7354 3.06846 16.9888C2.56961 16.2422 2.30334 15.3644 2.30334 14.4665C2.30813 13.2639 2.78798 12.112 3.63835 11.2616C4.48872 10.4112 5.6407 9.93136 6.8433 9.92657Z" fill="#251844"/>
</g>
</g>
</g>
</g>
<defs>
<clipPath id="clip0_172_425">
<path d="M0 17C0 7.61116 7.61116 0 17 0C26.3888 0 34 7.61116 34 17V34H0V17Z" fill="white"/>
</clipPath>
</defs>
</svg>
