<svg width="68" height="56" viewBox="0 0 68 56" fill="none" xmlns="http://www.w3.org/2000/svg">
    <path
        d="M21.3441 55.8571C13.4877 55.8571 6.16414 53.5721 0 49.6293C5.23355 49.968 14.4696 49.157 20.2144 43.6773C11.5723 43.2808 7.67492 36.6527 7.16656 33.8202C7.90086 34.1034 11.4029 34.4433 13.3798 33.6502C3.43861 31.1576 1.91354 22.4335 2.25244 19.7709C4.11642 21.0739 7.27953 21.5271 8.52218 21.4138C-0.741217 14.7857 2.59135 4.81527 4.22939 2.66256C10.8771 11.8725 20.8401 17.0451 33.1655 17.3328C32.9331 16.3136 32.8104 15.2524 32.8104 14.1626C32.8104 6.3408 39.1326 0 46.9314 0C51.0062 0 54.6778 1.73097 57.2553 4.49975C59.9782 3.86168 64.0762 2.36802 66.0795 1.07635C65.0697 4.70197 61.926 7.72648 60.0243 8.84747C60.0089 8.80917 60.0401 8.88561 60.0243 8.84747C61.6948 8.5948 66.2145 7.72618 68 6.51478C67.117 8.55161 63.784 11.9382 61.0487 13.8342C61.5577 36.2781 44.3857 55.8571 21.3441 55.8571Z"
        fill="#47ACDF" />
</svg>
