<?xml version="1.0" encoding="utf-8"?>
<!-- Svg Vector Icons : http://www.onlinewebfonts.com/icon -->
<!DOCTYPE svg PUBLIC "-//W3C//DTD SVG 1.1//EN" "http://www.w3.org/Graphics/SVG/1.1/DTD/svg11.dtd">
<svg version="1.1" xmlns="http://www.w3.org/2000/svg" xmlns:xlink="http://www.w3.org/1999/xlink" x="0px" y="0px" viewBox="0 0 256 256" enable-background="new 0 0 256 256" xml:space="preserve">
<metadata> Svg Vector Icons : http://www.onlinewebfonts.com/icon </metadata>
<g><g><path fill="#000000" d="M128,10C62.8,10,10,62.8,10,128c0,65.2,52.8,118,118,118c65.2,0,118-52.8,118-118C246,62.8,193.2,10,128,10z M104.5,51c8.6,0,15.6,7,15.6,15.6c0,8.6-7,15.6-15.6,15.6S89,75.2,89,66.6C89,58,95.9,51,104.5,51z M203.3,167.1c-22.3,13-40.9,3.7-54.2-13.2c-0.5,0.2-1,0.5-1.5,0.7c-10.9,3.8-20.8,9.9-29.5,17.5c-0.6,0.5-1.3,1-1.9,1.3c-4.8,9.9-9.6,19.8-14.4,29.6c-5.4,11.1-22.8,3-17.4-8.2c5-10.4,10.1-20.8,15.1-31.2c1-2.1,2.4-3.5,4.1-4.3c0.3-0.3,0.6-0.6,0.9-0.9c7.5-6.5,15.6-12,24.2-16.5c-5.9-11.4-12-22.7-18.5-33.8c-20.5,6.3-40.1-1.1-54-20.6c-7.2-10.1,9.4-19.7,16.6-9.7c10.9,15.3,25.5,17.1,41.2,7.7c1.1-0.6,2.1-1,3.2-1.3c0.4-0.2,0.7-0.3,1.1-0.5c0.7-0.8,1.5-1.5,2.6-2.1c25.3-15,50.5-9.1,67.5,14.6c7.2,10.1-9.4,19.7-16.5,9.7c-8.7-12.3-19.9-15.8-32.1-11.9c6.2,10.8,12.2,21.8,17.9,32.9c0.7,1.3,1.2,2.6,1.5,3.9c7.4,13.5,17.1,27.5,33.5,17.9C204.5,142,215.1,160.3,203.3,167.1z"/></g></g>
</svg>